<svg width="19" height="20" viewBox="0 0 19 20" fill="none" xmlns="http://www.w3.org/2000/svg">
<path fill-rule="evenodd" clip-rule="evenodd" d="M5.71953 0.888252C6.69703 0.843252 7.0087 0.833252 9.4987 0.833252C11.9887 0.833252 12.3004 0.844085 13.277 0.888252C14.2537 0.932419 14.9204 1.08825 15.5037 1.31409C16.1145 1.54492 16.6687 1.90575 17.127 2.37242C17.5937 2.82992 17.9537 3.38325 18.1837 3.99492C18.4104 4.57825 18.5654 5.24492 18.6104 6.21992C18.6554 7.19909 18.6654 7.51075 18.6654 9.99992C18.6654 12.4899 18.6545 12.8016 18.6104 13.7791C18.5662 14.7541 18.4104 15.4208 18.1837 16.0041C17.9537 16.6158 17.5931 17.1701 17.127 17.6283C16.6687 18.0949 16.1145 18.4549 15.5037 18.6849C14.9204 18.9116 14.2537 19.0666 13.2787 19.1116C12.3004 19.1566 11.9887 19.1666 9.4987 19.1666C7.0087 19.1666 6.69703 19.1558 5.71953 19.1116C4.74453 19.0674 4.07786 18.9116 3.49453 18.6849C2.8828 18.4549 2.32855 18.0943 1.87036 17.6283C1.40401 17.1705 1.04313 16.6165 0.812865 16.0049C0.587031 15.4216 0.432031 14.7549 0.387031 13.7799C0.342031 12.8008 0.332031 12.4891 0.332031 9.99992C0.332031 7.50992 0.342865 7.19825 0.387031 6.22159C0.431198 5.24492 0.587031 4.57825 0.812865 3.99492C1.04347 3.38332 1.40463 2.82935 1.8712 2.37159C2.32873 1.90534 2.88242 1.54445 3.4937 1.31409C4.07703 1.08825 4.7437 0.933252 5.7187 0.888252H5.71953ZM13.2029 2.53825C12.2362 2.49409 11.9462 2.48492 9.4987 2.48492C7.0512 2.48492 6.7612 2.49409 5.79453 2.53825C4.90036 2.57909 4.41536 2.72825 4.09203 2.85409C3.66453 3.02075 3.3587 3.21825 3.03786 3.53909C2.73374 3.83496 2.49968 4.19515 2.35286 4.59325C2.22703 4.91659 2.07786 5.40159 2.03703 6.29575C1.99286 7.26242 1.9837 7.55242 1.9837 9.99992C1.9837 12.4474 1.99286 12.7374 2.03703 13.7041C2.07786 14.5983 2.22703 15.0833 2.35286 15.4066C2.49953 15.8041 2.7337 16.1649 3.03786 16.4608C3.3337 16.7649 3.69453 16.9991 4.09203 17.1458C4.41536 17.2716 4.90036 17.4208 5.79453 17.4616C6.7612 17.5058 7.05036 17.5149 9.4987 17.5149C11.947 17.5149 12.2362 17.5058 13.2029 17.4616C14.097 17.4208 14.582 17.2716 14.9054 17.1458C15.3329 16.9791 15.6387 16.7816 15.9595 16.4608C16.2637 16.1649 16.4979 15.8041 16.6445 15.4066C16.7704 15.0833 16.9195 14.5983 16.9604 13.7041C17.0045 12.7374 17.0137 12.4474 17.0137 9.99992C17.0137 7.55242 17.0045 7.26242 16.9604 6.29575C16.9195 5.40159 16.7704 4.91659 16.6445 4.59325C16.4779 4.16575 16.2804 3.85992 15.9595 3.53909C15.6636 3.23498 15.3035 3.00093 14.9054 2.85409C14.582 2.72825 14.097 2.57909 13.2029 2.53825ZM8.32787 12.8258C8.98175 13.0979 9.70985 13.1347 10.3878 12.9297C11.0658 12.7247 11.6515 12.2907 12.045 11.7018C12.4386 11.1129 12.6154 10.4056 12.5454 9.70084C12.4754 8.99603 12.1629 8.3374 11.6612 7.83742C11.3414 7.51782 10.9547 7.2731 10.529 7.12087C10.1032 6.96865 9.64906 6.91272 9.19911 6.9571C8.74917 7.00148 8.31466 7.14507 7.92687 7.37753C7.53908 7.60999 7.20765 7.92554 6.95645 8.30146C6.70525 8.67738 6.54052 9.10433 6.47413 9.55155C6.40773 9.99878 6.44132 10.4552 6.57248 10.8878C6.70364 11.3205 6.9291 11.7188 7.23263 12.0539C7.53617 12.3889 7.91022 12.6526 8.32787 12.8258ZM6.16703 6.66825C6.60455 6.23073 7.12396 5.88367 7.69561 5.64689C8.26726 5.4101 8.87995 5.28823 9.4987 5.28823C10.1174 5.28823 10.7301 5.4101 11.3018 5.64689C11.8734 5.88367 12.3928 6.23073 12.8304 6.66825C13.2679 7.10577 13.6149 7.62519 13.8517 8.19683C14.0885 8.76848 14.2104 9.38117 14.2104 9.99992C14.2104 10.6187 14.0885 11.2314 13.8517 11.803C13.6149 12.3747 13.2679 12.8941 12.8304 13.3316C11.9468 14.2152 10.7483 14.7116 9.4987 14.7116C8.24908 14.7116 7.05064 14.2152 6.16703 13.3316C5.28342 12.448 4.78701 11.2495 4.78701 9.99992C4.78701 8.7503 5.28342 7.55187 6.16703 6.66825ZM15.2554 5.98992C15.3638 5.88764 15.4506 5.76465 15.5106 5.62823C15.5707 5.49181 15.6027 5.34473 15.6049 5.19569C15.6071 5.04666 15.5793 4.89871 15.5233 4.76059C15.4672 4.62248 15.3841 4.49701 15.2787 4.39162C15.1733 4.28623 15.0478 4.20305 14.9097 4.14702C14.7716 4.09098 14.6236 4.06323 14.4746 4.0654C14.3256 4.06758 14.1785 4.09963 14.0421 4.15967C13.9056 4.2197 13.7826 4.3065 13.6804 4.41492C13.4815 4.62578 13.3726 4.90585 13.3768 5.19569C13.381 5.48553 13.498 5.76232 13.703 5.96729C13.908 6.17226 14.1847 6.28928 14.4746 6.2935C14.7644 6.29773 15.0445 6.18883 15.2554 5.98992Z" fill="#FCFAF8"></path>
</svg>
