<svg width="30" height="31" viewBox="0 0 30 31" fill="none" xmlns="http://www.w3.org/2000/svg">
<path d="M8.9494 30.4353C9.71977 29.9769 10.5749 29.7305 11.4141 29.4449C11.7061 29.3457 11.9957 29.2401 12.2773 29.1225C12.5957 29.6193 13.0637 30.0273 13.65 30.2705C15.0612 30.8561 16.6635 30.2825 17.4011 28.9881C17.9387 29.2345 18.5067 29.4153 19.0651 29.6193C19.7235 29.8593 20.3634 30.1489 21.0074 30.4273C21.1826 30.5033 21.2234 30.4881 21.2986 30.3041C21.589 29.5961 21.8738 28.8856 22.1922 28.1896C22.4122 27.7104 22.6602 27.2416 22.8409 26.7488C24.2729 27.136 25.8041 26.4104 26.388 25.0039C26.6304 24.4191 26.6736 23.8015 26.5496 23.2255C26.7448 23.1447 26.9384 23.0575 27.1304 22.967C28.0216 22.547 28.88 22.0502 29.8431 21.7982C29.9943 21.7582 30.0055 21.6654 29.9383 21.539C29.8279 21.3326 29.7047 21.1302 29.6223 20.9126C29.3615 20.2222 29.1144 19.5269 28.8664 18.8325C28.7928 18.6253 28.7152 18.4205 28.6304 18.2181C29.1231 17.8997 29.5287 17.4341 29.7703 16.8508C30.3551 15.442 29.7847 13.8435 28.496 13.1043C28.7168 12.6227 28.8888 12.1171 29.0687 11.6147C29.2999 10.9674 29.5551 10.3282 29.8311 9.6986C30.0111 9.28899 30.0279 9.32099 29.6191 9.14899C28.8352 8.81938 28.0576 8.47296 27.2864 8.11455C26.9432 7.95455 26.5984 7.79854 26.2456 7.66894C26.6384 6.23449 25.9129 4.69764 24.5033 4.11202C23.9177 3.86881 23.2993 3.82641 22.7234 3.95041C22.6026 3.6632 22.4714 3.37999 22.337 3.09918C21.9562 2.30636 21.5298 1.53353 21.3066 0.673501C21.265 0.511095 21.1762 0.508695 21.0338 0.569497C20.3962 0.843906 19.765 1.13832 19.1107 1.36872C18.6443 1.53273 18.1755 1.69113 17.7243 1.87994C17.4059 1.38232 16.9379 0.972711 16.3508 0.729503C14.9412 0.144683 13.3413 0.715902 12.6029 2.00715C12.0677 1.76154 11.5037 1.57913 10.9469 1.37752C10.295 1.14152 9.65897 0.859107 9.02219 0.581498C8.8182 0.492695 8.7662 0.487894 8.7038 0.709502C8.47341 1.52873 8.08222 2.27755 7.70703 3.03438C7.50944 3.43359 7.31425 3.83521 7.16305 4.25282C5.7303 3.86401 4.19755 4.58963 3.61357 5.99688C3.37117 6.5817 3.32797 7.19852 3.45117 7.77374C3.40637 7.79214 3.36078 7.81134 3.31598 7.83054C2.25361 8.28416 1.26884 8.91458 0.136081 9.20739C0.00728516 9.24019 0.0024826 9.34099 0.0632806 9.4442C0.513666 10.2098 0.76246 11.0562 1.04485 11.8891C1.14645 12.1891 1.25284 12.4883 1.37364 12.7803C0.878455 13.0987 0.472069 13.5651 0.229677 14.15C-0.355905 15.5604 0.216876 17.1613 1.50883 17.8997C1.31764 18.3181 1.16245 18.7541 1.00405 19.1893C0.747259 19.8957 0.483268 20.6006 0.184078 21.2902C0.00248337 21.7094 -0.021518 21.6742 0.396869 21.851C1.18004 22.1814 1.95682 22.5294 2.7288 22.887C3.06798 23.0439 3.40718 23.1975 3.75516 23.3255C3.35838 24.7623 4.08395 26.3024 5.49591 26.8888C6.08309 27.132 6.70307 27.1752 7.27985 27.0488C7.29185 27.0784 7.30465 27.1088 7.31745 27.1384C7.77263 28.2152 8.41581 29.2105 8.7126 30.3569C8.7454 30.4841 8.8454 30.4977 8.9486 30.4361L8.9494 30.4353Z" fill="#E65300"></path>
</svg>
