<svg width="30" height="31" viewBox="0 0 30 31" fill="none" xmlns="http://www.w3.org/2000/svg">
<path d="M28.2124 13.704C27.7729 13.1984 27.3158 12.7176 26.7691 12.3433C26.7963 12.1977 26.8123 12.0481 26.8139 11.8945C26.8195 10.9753 26.3265 10.1705 25.5892 9.73291C25.594 9.71371 25.6004 9.69451 25.6052 9.67451C25.8102 8.81933 25.7213 7.95135 25.6885 7.08497C25.6645 6.43698 25.6885 5.7874 25.7029 5.13861C25.7069 4.96262 25.6797 4.93222 25.4956 4.93222C24.7871 4.92982 24.0779 4.93462 23.3703 4.90422C22.6675 4.87382 21.9639 4.78502 21.2667 4.92022C21.145 4.94422 21.0234 4.97222 20.9025 5.00261C20.4766 4.24903 19.6706 3.73784 18.7428 3.73224C18.5963 3.73144 18.4522 3.74424 18.3122 3.76824C17.9944 3.29385 17.5901 2.88586 17.1651 2.49547C16.4935 1.87788 15.7675 1.3163 15.2152 0.577913C15.1279 0.461916 15.0447 0.484316 14.959 0.586713C14.8205 0.75311 14.6901 0.929906 14.5324 1.0763C14.0321 1.54109 13.5214 1.99548 13.0123 2.45067C12.576 2.84026 12.1638 3.25145 11.8372 3.73304C11.6915 3.70584 11.5426 3.68984 11.3897 3.68904C10.474 3.68344 9.67192 4.17143 9.23326 4.90342C8.41678 4.70342 7.5843 4.76182 6.75181 4.79782C6.11624 4.82582 5.47827 4.83062 4.8427 4.81302C4.42805 4.80182 4.45047 4.77622 4.44566 5.18661C4.43686 5.97379 4.41204 6.76098 4.37282 7.54736C4.3392 8.23854 4.32159 8.92733 4.48409 9.60331C3.73565 10.0305 3.22895 10.8329 3.22335 11.7561C3.22255 11.9025 3.23536 12.0465 3.25937 12.1865C2.99682 12.3624 2.75508 12.5664 2.52454 12.7872C2.27399 13.028 2.03626 13.2832 1.80252 13.5408C1.2558 14.144 0.741899 14.78 0.0823133 15.2712C-0.0417592 15.364 -0.0137429 15.4408 0.0879166 15.5408C0.545784 15.992 1.01966 16.4296 1.44471 16.9103C2.00184 17.5383 2.54455 18.1799 3.22495 18.6519C3.19693 18.7983 3.18092 18.9495 3.17932 19.1039C3.17372 20.0215 3.66521 20.8263 4.40164 21.2638C4.18471 22.135 4.26876 23.0206 4.30398 23.9062C4.3296 24.5478 4.30958 25.1918 4.29357 25.8333C4.28877 26.0389 4.30318 26.0853 4.5145 26.0613C5.29736 25.9725 6.07622 26.0461 6.85667 26.1045C7.53947 26.1549 8.22547 26.1949 8.89947 26.0493C8.9643 26.0357 9.02914 26.0189 9.09398 26.0021C9.52063 26.7525 10.3243 27.2613 11.2504 27.2669C11.3985 27.2677 11.5434 27.2541 11.6843 27.2309C11.9188 27.5797 12.1998 27.8941 12.5032 28.1941C13.2636 28.9461 14.1481 29.5701 14.7949 30.4388C14.8686 30.5372 14.9558 30.5068 15.0238 30.4188C15.5233 29.7653 16.1621 29.2565 16.7777 28.7237C17.2852 28.2837 17.7791 27.8285 18.1513 27.2661C18.2978 27.2941 18.4482 27.3101 18.6027 27.3109C19.5193 27.3165 20.3221 26.8277 20.7608 26.0949C21.5132 26.2765 22.2825 26.2389 23.0525 26.2093C23.7481 26.1821 24.4454 26.1629 25.1402 26.1781C25.5628 26.1877 25.542 26.2205 25.5468 25.7997C25.5564 25.0126 25.5836 24.2254 25.6204 23.439C25.6533 22.7526 25.6701 22.0686 25.5084 21.3966C26.2568 20.9695 26.7635 20.1671 26.7691 19.2439C26.7699 19.0959 26.7563 18.9511 26.7331 18.8103C27.0685 18.5839 27.3735 18.3119 27.664 18.0215C28.4285 17.2551 29.0576 16.3568 29.9366 15.7016C30.0342 15.6288 30.011 15.5384 29.9222 15.472C29.2602 14.972 28.7495 14.3248 28.2116 13.7056" fill="#C6A26D"></path>
</svg>
