<svg width="30" height="31" viewBox="0 0 30 31" fill="none" xmlns="http://www.w3.org/2000/svg">
<path d="M29.9586 21.5708C29.5003 20.7988 29.2539 19.942 28.9676 19.1012C28.5964 18.01 28.1541 16.9613 27.2206 16.1701C27.5942 16.1029 27.8165 15.9053 27.8381 15.5485C27.8629 15.1485 27.615 14.9461 27.279 14.8541C27.523 14.5685 27.7869 14.2997 28.0045 13.9973C28.5596 13.2237 28.8244 12.3181 29.1467 11.4365C29.3875 10.7773 29.6778 10.1357 29.957 9.49174C30.033 9.31654 30.0178 9.27574 29.8338 9.19974C29.1251 8.90775 28.4132 8.62295 27.7165 8.30295C27.0254 7.98536 26.3567 7.60856 25.6033 7.45976C25.1273 7.36536 24.6394 7.33096 24.1603 7.26936C24.3402 6.99737 24.3594 6.68537 24.0859 6.41657C23.8147 6.15017 23.5052 6.18218 23.194 6.38297C23.1996 6.21657 23.21 6.06778 23.2084 5.91978C23.198 5.00059 22.8725 4.1686 22.4893 3.35341C22.0694 2.46062 21.5719 1.60063 21.3207 0.635038C21.2807 0.483039 21.1879 0.471839 21.0607 0.539839C20.8536 0.650237 20.6512 0.774235 20.4336 0.856634C19.7425 1.11823 19.0458 1.36463 18.3491 1.61263C17.6156 1.87342 16.9046 2.17902 16.2942 2.67421C16.0783 2.84941 15.8831 3.04941 15.6767 3.23981C15.5664 2.86381 15.3808 2.67742 15.0832 2.65502C14.6633 2.62302 14.4553 2.87101 14.3529 3.23181C14.149 3.04061 13.9634 2.84381 13.7554 2.67421C12.9787 2.04142 12.0437 1.73742 11.119 1.40623C10.4711 1.17423 9.83041 0.918234 9.20091 0.641437C8.79057 0.460639 8.82336 0.443838 8.65059 0.853434C8.31944 1.63823 7.97309 2.41742 7.61314 3.18941C7.28119 3.9006 6.96684 4.6158 6.86685 5.40139C6.82686 5.71258 6.82926 6.02938 6.81166 6.35657C6.50931 6.17017 6.21015 6.13898 5.94539 6.39497C5.66623 6.66537 5.69023 6.97897 5.8958 7.31256C5.08152 7.22616 4.33923 7.39816 3.61934 7.68456C3.26979 7.82376 2.92744 7.98216 2.58749 8.14536C1.79321 8.52615 1.01893 8.95335 0.157457 9.17575C-0.00491857 9.21734 -0.00811809 9.30694 0.0526728 9.44854C0.327032 10.0877 0.622188 10.7205 0.851753 11.3757C1.29169 12.6309 1.69003 13.9005 2.75947 14.8093C2.31953 14.9781 2.14836 15.1765 2.15556 15.4981C2.16276 15.8173 2.34753 16.0237 2.72827 16.1509C2.5203 16.3821 2.29234 16.6061 2.09957 16.8573C1.48046 17.6604 1.1949 18.6188 0.855753 19.5548C0.618988 20.2084 0.335831 20.8452 0.0574721 21.482C-0.0321145 21.686 -0.0361139 21.7388 0.185453 21.8012C1.00613 22.0324 1.75562 22.4244 2.51391 22.8012C3.17701 23.1308 3.84731 23.4508 4.5824 23.5804C5.00153 23.654 5.43027 23.67 5.84621 23.7108C5.66303 24.0644 5.67743 24.342 5.9022 24.5692C6.14136 24.8116 6.41812 24.8284 6.81486 24.614C6.71808 25.5444 6.96524 26.3828 7.31399 27.2027C7.76752 28.2667 8.39863 29.2547 8.69138 30.3891C8.72418 30.5179 8.82496 30.5235 8.92895 30.4619C9.69603 30.0115 10.5439 29.7627 11.379 29.4795C12.1141 29.2299 12.842 28.9587 13.4747 28.4947C13.777 28.2731 14.0498 28.0107 14.3321 27.7699C14.4289 28.1363 14.6225 28.3227 14.94 28.3467C15.2728 28.3715 15.4752 28.2043 15.6543 27.7619C15.8247 27.9267 15.9887 28.1051 16.1711 28.2603C16.907 28.8875 17.8004 29.1995 18.6907 29.5235C19.3978 29.7811 20.1041 30.0459 20.7944 30.3459C21.2143 30.5283 21.1791 30.5523 21.3567 30.1331C21.6878 29.3483 22.0374 28.5707 22.3957 27.7979C22.7229 27.0931 23.0348 26.3836 23.1348 25.6052C23.1756 25.2884 23.174 24.9668 23.1916 24.646C23.5108 24.8316 23.8059 24.8428 24.0195 24.6316C24.1323 24.5196 24.2283 24.3508 24.2483 24.1964C24.2691 24.0348 24.1907 23.8604 24.1563 23.6932C24.2547 23.698 24.373 23.706 24.4922 23.7076C25.2545 23.7172 25.964 23.4964 26.6559 23.2044C27.7349 22.7492 28.7324 22.1052 29.8802 21.8084C30.0074 21.7756 30.021 21.6756 29.9602 21.5724L29.9586 21.5708Z" fill="#811B48"></path>
</svg>
