<svg width="19" height="20" viewBox="0 0 19 20" fill="none" xmlns="http://www.w3.org/2000/svg">
<path d="M0.332031 10.0222C0.332031 4.94729 4.43609 0.833252 9.4987 0.833252C14.5613 0.833252 18.6654 4.94729 18.6654 10.0222C18.6654 14.7898 15.0434 18.7093 10.4073 19.1666C10.4322 19.1622 10.4569 19.1575 10.4817 19.1526V12.66H12.8648L13.2214 9.88638H10.4817V8.11555C10.4817 7.31247 10.704 6.76537 11.8529 6.76537L13.3179 6.76465V4.284C13.0645 4.25009 12.1949 4.17469 11.183 4.17469C9.07072 4.17469 7.62437 5.46714 7.62437 7.841V9.88638H5.2351V12.66H7.62437V19.0189C3.4607 18.1517 0.332031 14.4532 0.332031 10.0222Z" fill="#FCFAF8"></path>
</svg>
