<svg width="202" height="202" viewBox="0 0 202 202" fill="none" xmlns="http://www.w3.org/2000/svg">
<path d="M72.1382 196.744C125.016 212.684 180.805 182.74 196.744 129.861C212.684 76.9832 182.74 21.1951 129.862 5.25527C76.9834 -10.6846 21.1954 19.2598 5.25548 72.138C-10.6844 125.016 19.26 180.804 72.1382 196.744Z" fill="#802752"/>
<path d="M49.6511 60.9452L48.7384 62.2577L42.2111 60.2639C40.706 59.7998 38.1842 58.9665 36.8175 58.4762C37.9491 59.2612 40.0731 60.6691 41.1224 61.398L46.6737 65.2438L45.4636 66.9888L31.0778 57.0227L32.2879 55.2777L37.9751 56.9921C38.9804 57.2952 41.0451 57.9645 42.395 58.4759C41.3667 57.7638 39.4839 56.4913 38.7236 55.9644L34.057 52.7351L35.2671 50.9901L49.653 60.9562L49.6511 60.9452Z" fill="white"/>
<path d="M55.7178 54.2103L51.3679 58.9046L38.5238 47.0114L42.6666 42.5367L44.2791 44.0306L41.6624 46.8557L45.3115 50.2378L47.333 48.0533L48.9455 49.5472L46.924 51.7317L51.272 55.758L54.091 52.712L55.7035 54.2059L55.7178 54.2103Z" fill="white"/>
<path d="M53.6329 33.2407L62.7903 48.3204L61.5194 49.3316L57.1724 45.2848C56.4492 44.6176 54.7685 42.9517 53.9062 42.0703C54.5705 43.1061 55.7495 44.9812 56.298 45.9507L59.2915 51.1093L58.0206 52.1205L45.349 39.8459L46.9925 38.5344L52.341 43.9537C53.0287 44.6519 54.2215 45.9097 55.0144 46.744C54.3744 45.7834 53.43 44.3603 52.9052 43.5024L48.8646 37.036L50.1154 36.0396L55.5243 41.4144C56.247 42.1179 57.4249 43.3556 58.2179 44.1899C57.5779 43.2293 56.6186 41.7861 56.0886 40.9631L51.9876 34.5411L53.631 33.2297L53.6329 33.2407Z" fill="white"/>
<path d="M76.7273 40.5526L74.8114 41.4687L73.6788 40.3752C73.6209 41.7626 73.1725 42.557 72.2256 43.0131C70.4003 43.8885 68.9204 42.821 67.6576 40.1843C66.829 38.4462 66.6275 36.2391 67.1455 34.1915L65.966 33.063C64.9543 32.1053 64.2924 31.4253 63.8831 30.5656C63.0397 28.8073 63.55 27.1491 65.3083 26.3056C66.8638 25.563 68.0422 26.1062 69.2794 27.4244L67.9304 29.1797C66.9858 28.19 66.6097 27.9826 66.0902 28.2333C65.5285 28.5027 65.4608 29.0045 65.7655 29.6395C66.0803 30.2931 66.5643 30.7837 67.2784 31.4637L71.1297 35.1627C70.9406 34.4216 70.7295 33.5799 70.4928 32.6155L72.3208 32.2683C72.8008 34.3139 73.1511 35.9757 73.3935 37.3543L76.7273 40.5526ZM71.864 38.6689L68.7722 35.7419C68.7626 36.8827 69.0479 38.0497 69.5212 39.0436C70.3092 40.6912 70.9142 41.3174 71.5444 41.0113C71.9718 40.8059 72.1237 40.3713 71.864 38.6689Z" fill="white"/>
<path d="M85.1461 37.9414L82.9739 38.5295L78.3987 21.6403L80.5709 21.0522L85.1461 37.9414Z" fill="white"/>
<path d="M96.8787 35.953L94.8477 36.2286L94.1325 30.9265C93.8361 28.7222 93.6436 26.5544 93.379 24.5737C93.3379 25.94 93.1468 28.8434 92.9947 30.5261L92.4161 37.0884L90.1475 30.9107C89.5935 29.4225 88.5931 26.5046 88.2029 25.2694C88.4406 27.0278 88.8726 29.4924 89.1567 31.599L89.8719 36.9011L87.8409 37.1766L85.5067 19.835L87.9127 19.5106L90.1165 25.747C90.5641 26.9995 91.1928 28.881 91.5061 30.2497C91.4433 28.8469 91.549 26.816 91.6489 25.5144L92.1528 18.9401L94.5588 18.6157L96.893 35.9574L96.8787 35.953Z" fill="white"/>
<path d="M106.838 23.4551C106.747 27.031 104.887 28.507 102.762 28.4515L101.912 28.4302L101.721 35.9762L99.4719 35.9196L99.9141 18.4279L103.112 18.5092C105.236 18.5647 106.927 19.8318 106.838 23.4551ZM104.562 23.521C104.614 21.4948 104.134 20.6609 103.036 20.6326L102.113 20.6103L101.968 26.3058L102.766 26.327C103.839 26.3529 104.51 25.4951 104.562 23.521Z" fill="white"/>
<path d="M115.532 37.5228L113.24 37.14L112.916 29.0995L111.907 28.931L110.599 36.6992L108.382 36.3285L111.281 19.0708L114.413 19.597C116.511 19.9475 118.056 21.301 117.452 24.8997C117.104 26.9725 116.279 28.2539 115.121 28.8189L115.534 37.5338L115.532 37.5228ZM115.187 24.6347C115.523 22.6367 115.144 21.8647 114.06 21.6841L113.146 21.5287L112.242 26.9014L113.032 27.0351C114.091 27.2132 114.856 26.5821 115.187 24.6347Z" fill="white"/>
<path d="M126.919 31.8068C125.168 37.2847 123.519 40.2446 120.493 39.2803C117.587 38.3522 117.911 35.0448 119.649 29.5894C121.4 24.1115 123.049 21.1516 126.003 22.0942C128.98 23.044 128.621 26.4711 126.919 31.8068ZM124.687 31.2229C126.327 26.0772 126.316 24.5543 125.293 24.2249C124.245 23.8882 123.476 25.1396 121.872 30.1656C120.233 35.3112 120.196 36.8198 121.243 37.1564C122.266 37.4858 123.083 36.2489 124.687 31.2229Z" fill="white"/>
<path d="M139.846 28.0896L129.728 42.6696L127.737 41.7355L132.543 24.6504L134.692 25.6638L131.345 36.2481C131.086 37.037 130.823 37.7723 130.537 38.5477C130.956 37.8333 131.355 37.1652 131.804 36.4388L137.701 27.0824L139.85 28.0958L139.846 28.0896Z" fill="white"/>
<path d="M139.273 48.3141L133.894 44.8492L143.374 30.1343L148.504 33.4403L147.314 35.2907L144.077 33.2079L141.38 37.3924L143.881 39.003L142.692 40.8534L140.19 39.2428L136.981 44.2236L140.471 46.4714L139.281 48.3218L139.273 48.3141Z" fill="white"/>
<path d="M152.011 47.4072C148.104 51.9637 145.19 53.2472 142.853 51.2475L140.744 49.4421L152.137 36.1601L154.431 38.131C156.937 40.2808 155.533 43.2937 152.004 47.4106L152.011 47.4072ZM150.268 45.9107C153.523 42.1134 153.976 40.5944 152.931 39.6946L152.438 39.2692L143.861 49.2695L144.317 49.6628C145.305 50.5089 146.853 49.8946 150.268 45.9107Z" fill="white"/>
<path d="M159.319 61.8721C156.74 63.8102 154.364 63.8094 152.682 61.574L150.956 59.2782L164.946 48.7635L166.672 51.0593C168.219 53.1183 167.941 55.2017 165.382 57.125C163.843 58.28 162.502 58.4137 161.233 57.8067C161.502 59.2036 161.114 60.5229 159.319 61.8721ZM157.966 60.07C159.668 58.7917 159.936 57.781 159.123 56.7005L158.731 56.1804L153.977 59.7554L154.428 60.356C155.27 61.4769 156.31 61.3202 157.966 60.07ZM164.012 55.344C165.511 54.2186 165.695 53.2974 165.035 52.4197L164.569 51.7988L160.331 54.9809L160.781 55.5816C161.412 56.4191 162.373 56.5731 164.012 55.344Z" fill="white"/>
<path d="M159.845 73.1167L158.726 71.0769L164.832 65.8414L164.341 64.9414L157.438 68.7305L156.356 66.7593L171.69 58.3363L173.216 61.1204C174.237 62.9842 174.141 65.0338 170.943 66.7906C169.102 67.8025 167.585 67.9508 166.422 67.3914L159.845 73.1167ZM169.739 64.8609C171.515 63.8872 171.885 63.1109 171.356 62.1471L170.91 61.3391L166.134 63.9624L166.519 64.6631C167.033 65.6068 168.006 65.8111 169.737 64.8657L169.739 64.8609Z" fill="white"/>
<path d="M163.201 81.6747L162.372 79.5032L166.092 77.4703L165.238 75.2284L161.119 76.2114L160.308 74.0868L177.674 70.5117L178.545 72.8007L163.204 81.6809L163.201 81.6747ZM168.014 76.4149L172.335 74.0673C173.069 73.6775 173.759 73.3111 174.501 72.9447C173.703 73.1687 172.942 73.3521 172.116 73.5627L167.363 74.7096L168.014 76.4149Z" fill="white"/>
<path d="M165.263 90.396L164.745 88.13L172.055 84.772L171.828 83.7741L164.15 85.5278L163.652 83.3356L180.711 79.4436L181.418 82.5392C181.891 84.6088 181.23 86.5561 177.674 87.3694C175.627 87.8384 174.127 87.5639 173.164 86.7044L165.265 90.407L165.263 90.396ZM177.043 85.1684C179.016 84.719 179.586 84.0761 179.342 82.9996L179.138 82.0975L173.827 83.3113L174.005 84.0907C174.242 85.1389 175.119 85.607 177.044 85.1636L177.043 85.1684Z" fill="white"/>
<path d="M183.186 93.4431L178.233 92.5822L178.075 91.1663L182.904 90.9299L183.181 93.4417L183.186 93.4431Z" fill="white"/>
<path d="M169.893 103.861C167.541 103.883 165.753 102.623 165.736 100.446C165.717 98.2934 167.23 97.0316 170.23 96.7295L170.598 98.9033C168.65 99.1464 168.057 99.6777 168.061 100.426C168.07 101.228 168.599 101.622 169.672 101.611C171.322 101.597 172.217 101.036 174.329 99.2967C176.066 97.8828 177.805 96.7884 179.806 96.77C182.006 96.749 183.765 97.859 183.788 100.086C183.808 102.358 182.14 103.302 179.844 103.643L179.347 101.499C180.82 101.238 181.515 100.852 181.509 100.129C181.501 99.4274 180.998 99.0354 179.872 99.0459C178.646 99.0577 177.801 99.5393 176.113 100.931C174.004 102.677 172.113 103.841 169.886 103.864L169.893 103.861Z" fill="white"/>
<path d="M146.786 111.549C145.563 108.193 144.369 106.799 142.48 105.253C143.413 104.443 146.6 101.79 148.078 96.8874C151.857 84.3496 131.37 69.2597 114.07 75.7893C110.781 77.033 108.579 78.7244 107.148 80.4395C106.905 78.2146 106.009 75.5894 103.949 72.7386C93.1334 57.7386 67.7249 58.9937 63.9469 71.5266C62.4692 76.4287 63.6583 80.401 63.9886 81.592C61.5597 81.8364 59.7948 82.3383 56.9204 84.459C53.8773 86.7063 51.9966 89.9307 51.1545 92.9669C48.9958 100.734 50.7664 108.287 55.3126 114.843C59.5554 120.968 65.6276 125.216 74.0852 127.442C79.248 128.8 84.0915 128.965 87.4484 128.102C90.0814 127.423 92.2131 126.259 93.8254 124.635C94.2716 126.879 95.4062 129.023 97.2239 131.049C99.5432 133.628 103.671 136.167 108.725 137.884C117.004 140.704 124.411 140.524 131.334 137.759C138.747 134.803 144.396 129.492 146.889 121.826C147.866 118.83 148.08 115.103 146.786 111.549ZM128.434 134.316C119.283 138.341 109.265 134.778 109.265 134.778C109.249 134.726 122.312 91.4966 122.312 91.4966C122.872 89.6391 123.582 87.9941 124.447 86.5264C125.162 85.332 126.823 83.4458 127.351 83.0255C127.658 82.7525 127.625 82.4656 127.239 82.4799C126.857 82.5005 126.241 82.6544 125.145 83.0499C123.65 83.5757 118.323 85.0509 117.405 85.2704C117.405 85.2704 117.05 85.3408 117.015 85.5079C116.94 85.7569 117.191 85.9473 117.191 85.9473C117.344 86.1137 117.842 86.4204 118.078 86.7109C118.437 87.1482 118.536 87.7211 118.324 88.4248L104.866 133.07C104.866 133.07 100.347 131.03 98.1052 127.675C96.7671 125.548 95.3229 121.4 98.1351 117.788C98.884 116.828 100.216 116.133 101.335 116.303C102.884 116.535 103.999 118.432 102.865 120.028C102.865 120.028 105.227 119.382 105.087 116.901C104.938 114.224 102.483 113.584 102.182 113.493C100.487 113.086 98.6232 113.344 96.9727 114.575C96.92 114.612 96.8754 114.656 96.8275 114.693C96.8084 114.636 96.7907 114.573 96.7717 114.515C96.0765 112.577 94.6706 111.333 93.0287 110.734C92.7271 110.643 90.3274 109.82 88.724 111.969C87.2348 113.964 88.8478 115.803 88.8478 115.803C88.7848 113.846 90.7625 112.881 92.1816 113.544C93.2078 114.02 93.9388 115.337 94.0277 116.549C94.3751 121.114 90.8788 123.773 88.5882 124.806C84.8655 126.363 79.9721 125.566 79.9721 125.566L93.4303 80.9208C93.6424 80.2171 94.0414 79.7942 94.5823 79.6283C94.9397 79.5167 95.5254 79.5314 95.7439 79.4823C95.7439 79.4823 96.0581 79.4621 96.1331 79.2132C96.1966 79.0548 95.9392 78.7996 95.9392 78.7996C95.3008 78.1111 91.6714 73.9359 90.7157 72.6712C90.0244 71.7422 89.5979 71.2689 89.2859 71.0391C88.974 70.8093 88.7812 71.0332 88.8908 71.4318C89.0944 72.0728 89.4402 74.5637 89.3761 75.9543C89.2815 77.6544 88.9688 79.4192 88.4089 81.2767C88.4089 81.2767 75.4036 124.524 75.3619 124.558C75.3619 124.558 65.0452 121.986 59.6418 113.579C55.8432 107.66 55.0362 101.208 57.1287 94.2664C57.8055 92.0212 58.9014 90.1008 60.4188 88.4798C61.9573 86.8755 63.501 85.6698 65.402 85.1148C66.567 87.1058 68.9509 91.2032 73.6396 92.8516C78.3284 94.5 79.9416 92.1454 80.3428 90.8145C80.744 89.4837 80.3574 88.1504 79.218 86.7155C79.0244 86.4743 75.5906 81.7367 67.9022 81.3251C67.8509 81.0277 67.2632 77.8321 68.6799 73.7732C72.2903 63.4249 93.833 62.1742 102.107 75.7136C105.023 80.4884 103.318 85.4524 101.022 85.0476C99.2798 84.8513 98.0227 83.0101 98.0227 83.0101C97.3814 85.8823 101.609 90.4989 104.982 87.6773C106.232 91.8977 112.308 90.3818 113.361 87.6338C113.361 87.6338 111.291 88.472 109.735 87.674C107.603 86.744 108.92 81.663 113.989 79.2953C128.368 72.5847 145.626 85.5315 142.92 96.1526C141.859 100.313 139.603 102.652 139.395 102.876C132.756 98.9638 127.28 101.021 126.985 101.115C125.242 101.681 124.183 102.578 123.782 103.909C123.381 105.24 123.425 108.089 128.243 109.311C133.061 110.529 137.317 108.433 139.384 107.416C140.661 108.929 141.28 110.792 141.677 112.975C142.046 115.164 141.898 117.37 141.221 119.616C139.129 126.557 134.89 131.489 128.453 134.322L128.434 134.316ZM68.6983 84.453C68.6983 84.453 71.7676 84.1458 75.1816 86.4544C77.4807 88.0091 77.613 89.3546 77.19 90.2036C76.6968 91.1986 74.6566 91.5915 71.634 88.8682C69.6904 87.1387 68.6935 84.4516 68.6935 84.4516L68.6983 84.453ZM136.974 105.034C136.974 105.034 134.658 106.723 132.082 107.09C128.058 107.689 126.575 106.234 126.714 105.132C126.83 104.191 127.684 103.143 130.46 103.118C134.581 103.081 136.969 105.033 136.969 105.033L136.974 105.034Z" fill="white"/>
<path d="M16.1881 107.984L16.1275 106.383L22.5422 104.056C24.0247 103.521 26.5406 102.676 27.9233 102.247C26.5488 102.303 24.0031 102.449 22.7296 102.499L15.9862 102.764L15.9057 100.64L33.3917 99.9578L33.4722 102.081L27.8954 104.124C26.9079 104.489 24.8577 105.192 23.4774 105.596C24.7241 105.549 26.9986 105.436 27.9244 105.396L33.595 105.173L33.6755 107.297L16.1895 107.979L16.1881 107.984Z" fill="white"/>
<path d="M17.9404 119.485L16.8104 113.185L34.0338 110.1L35.1111 116.107L32.9473 116.494L32.2665 112.706L27.3694 113.585L27.8923 116.51L25.7286 116.897L25.2056 113.972L19.3754 115.019L20.1075 119.104L17.9437 119.491L17.9404 119.485Z" fill="white"/>
<path d="M38.6758 127.448L21.371 130.89L20.8534 129.35L26.1437 126.647C27.0212 126.196 29.1589 125.185 30.2831 124.678C29.0841 124.949 26.9178 125.413 25.8175 125.599L19.9446 126.648L19.427 125.108L35.3018 117.402L35.9701 119.395L29.0451 122.566C28.1504 122.97 26.5633 123.661 25.5043 124.125C26.6258 123.853 28.2863 123.455 29.2707 123.255L36.7304 121.671L37.2394 123.187L30.3354 126.428C29.4259 126.864 27.8623 127.547 26.8033 128.011C27.9248 127.738 29.6087 127.331 30.5658 127.119L37.9998 125.464L38.6681 127.457L38.6758 127.448Z" fill="white"/>
<path d="M30.6739 148.933L29.5647 147.12L30.5381 145.884C29.1549 145.968 28.3153 145.6 27.7658 144.703C26.7097 142.975 27.6193 141.395 30.1155 139.871C31.76 138.868 33.9339 138.447 36.0244 138.754L37.028 137.469C37.8771 136.367 38.4887 135.637 39.3001 135.146C40.9648 134.128 42.664 134.468 43.6819 136.132C44.5803 137.604 44.1586 138.83 42.9725 140.201L41.088 139.037C41.9754 137.999 42.1426 137.6 41.8468 137.109C41.5214 136.578 41.0147 136.561 40.418 136.929C39.7977 137.306 39.3608 137.838 38.7539 138.621L35.4654 142.826C36.1822 142.561 37.001 142.27 37.9387 141.931L38.4713 143.716C36.4886 144.403 34.8711 144.918 33.522 145.305L30.6791 148.95L30.6739 148.933ZM32.0545 143.902L34.649 140.527C33.5148 140.634 32.3811 141.034 31.4408 141.607C29.8849 142.559 29.3237 143.225 29.6874 143.82C29.9364 144.224 30.384 144.333 32.0498 143.901L32.0545 143.902Z" fill="white"/>
<path d="M38.5446 158.69L37.0392 157.014L50.0634 145.32L51.5688 146.996L38.5446 158.69Z" fill="white"/>
<path d="M49.0282 168.446L47.4726 167.11L50.9616 163.055C52.4154 161.367 53.9055 159.785 55.2139 158.268C54.1606 159.147 51.8681 160.931 50.5052 161.935L45.2123 165.86L48.3234 160.061C49.0704 158.657 50.5888 155.976 51.2492 154.859C50.0909 156.207 48.5342 158.166 47.1509 159.775L43.6619 163.831L42.1062 162.495L53.5253 149.231L55.3618 150.814L52.1602 156.601C51.5217 157.766 50.5324 159.489 49.7129 160.631C50.7237 159.651 52.3082 158.379 53.35 157.591L58.5998 153.602L60.4363 155.184L49.0172 168.448L49.0282 168.446Z" fill="white"/>
<path d="M66.1224 164.532C64.2363 167.567 61.8844 167.903 60.0756 166.783L59.354 166.336L55.3733 172.75L53.4598 171.562L62.6875 156.698L65.4065 158.384C67.2105 159.502 68.0312 161.457 66.121 164.537L66.1224 164.532ZM64.1278 163.44C65.1947 161.72 65.2031 160.756 64.2705 160.177L63.4829 159.689L60.477 164.533L61.1536 164.956C62.0686 165.525 63.082 165.125 64.1215 163.443L64.1278 163.44Z" fill="white"/>
<path d="M70.0377 180.262L67.9096 179.318L69.5924 171.449L68.6567 171.036L65.4677 178.237L63.4086 177.324L70.4995 161.32L73.4015 162.607C75.3452 163.47 76.5077 165.157 75.0306 168.498C74.1799 170.419 73.0631 171.456 71.7989 171.717L70.0377 180.262ZM72.8971 167.693C73.7166 165.841 73.542 164.999 72.5373 164.556L71.6897 164.18L69.482 169.165L70.2143 169.49C71.195 169.927 72.0954 169.504 72.8957 167.698L72.8971 167.693Z" fill="white"/>
<path d="M83.611 175.279C82.0424 180.811 80.4814 183.824 77.4319 182.957C74.4973 182.125 74.7143 178.806 76.2742 173.302C77.8428 167.769 79.4038 164.757 82.3815 165.602C85.3879 166.456 85.1411 169.891 83.611 175.279ZM81.3627 174.768C82.8398 169.573 82.7767 168.05 81.7431 167.754C80.6842 167.456 79.9603 168.731 78.5206 173.802C77.0435 178.996 77.0587 180.505 78.1163 180.808C79.1513 181.099 79.923 179.838 81.3627 174.768Z" fill="white"/>
<path d="M95.0523 168.38L89.5301 185.244L87.3568 184.918L87.069 167.18L89.4171 167.533L89.2372 178.628C89.2121 179.456 89.1699 180.237 89.1243 181.064C89.3193 180.261 89.5109 179.504 89.7338 178.678L92.7042 168.028L95.0523 168.38Z" fill="white"/>
<path d="M103.028 186.076L96.6313 185.954L96.9705 168.458L103.07 168.578L103.028 170.78L99.1806 170.706L99.0859 175.681L102.061 175.737L102.019 177.938L99.0437 177.882L98.9291 183.806L103.077 183.887L103.035 186.088L103.028 186.076Z" fill="white"/>
<path d="M113.55 176.203C114.238 182.166 113.204 185.18 110.147 185.533L107.393 185.852L105.38 168.466L108.383 168.118C111.663 167.738 112.924 170.813 113.545 176.202L113.55 176.203ZM111.266 176.47C110.69 171.503 109.88 170.136 108.51 170.297L107.865 170.374L109.377 183.463L109.973 183.392C111.266 183.244 111.864 181.69 111.259 176.474L111.266 176.47Z" fill="white"/>
<path d="M130.528 175.321C131.578 178.368 130.85 180.629 128.198 181.543L125.478 182.477L119.786 165.931L122.507 164.996C124.942 164.158 126.841 165.065 127.883 168.089C128.51 169.908 128.222 171.226 127.25 172.249C128.66 172.423 129.796 173.194 130.527 175.325L130.528 175.321ZM125.76 168.844C125.15 167.072 124.333 166.612 123.29 166.971L122.555 167.225L124.282 172.237L124.994 171.991C125.985 171.648 126.428 170.784 125.764 168.845L125.76 168.844ZM128.401 176.053C127.712 174.043 126.829 173.474 125.552 173.915L124.935 174.125L126.873 179.754L127.584 179.509C128.907 179.052 129.078 178.017 128.406 176.054L128.401 176.053Z" fill="white"/>
<path d="M142.995 175.004L140.923 176.056L135.884 169.785L134.97 170.251L138.541 177.27L136.537 178.29L128.606 162.692L131.437 161.253C133.331 160.289 135.379 160.457 137.031 163.707C137.981 165.581 138.082 167.1 137.487 168.242L143.001 175.001L142.995 175.004ZM135.057 164.851C134.14 163.045 133.377 162.648 132.396 163.146L131.57 163.565L134.038 168.424L134.753 168.06C135.71 167.57 135.953 166.61 135.057 164.851Z" fill="white"/>
<path d="M152.76 168.554L150.846 169.878L147.981 166.753L146.008 168.117L147.945 171.881L146.071 173.175L138.459 157.162L140.472 155.768L152.755 168.552L152.76 168.554ZM146.501 165.132L143.191 161.492C142.636 160.87 142.117 160.29 141.583 159.654C141.991 160.378 142.346 161.07 142.751 161.824L144.998 166.167L146.496 165.13L146.501 165.132Z" fill="white"/>
<path d="M161.42 160.939L159.708 162.511L153.167 157.824L152.411 158.515L157.732 164.318L156.073 165.839L144.241 152.945L146.58 150.799C148.147 149.36 150.16 148.97 152.628 151.661C154.047 153.207 154.554 154.644 154.289 155.906L161.415 160.937L161.42 160.939ZM151.045 153.294C149.677 151.801 148.832 151.624 148.023 152.367L147.344 152.993L151.027 157.007L151.619 156.465C152.412 155.738 152.382 154.747 151.046 153.289L151.045 153.294Z" fill="white"/>
<path d="M152.995 144.106L155.718 148.327L154.782 149.403L151.34 146.01L152.995 144.106Z" fill="white"/>
<path d="M169.351 144.923C171.273 146.275 171.986 148.344 170.735 150.118C169.496 151.875 167.53 152.019 164.918 150.516L165.886 148.536C167.607 149.478 168.4 149.394 168.836 148.778C169.295 148.123 169.098 147.494 168.22 146.874C166.871 145.925 165.817 145.852 163.088 146.038C160.849 146.172 158.798 146.045 157.167 144.89C155.371 143.623 154.585 141.694 155.869 139.877C157.182 138.017 159.081 138.229 161.149 139.286L160.297 141.316C158.946 140.669 158.16 140.573 157.741 141.167C157.338 141.74 157.514 142.352 158.436 143.001C159.441 143.706 160.407 143.809 162.586 143.667C165.315 143.482 167.53 143.637 169.353 144.918L169.351 144.923Z" fill="white"/>
</svg>
