<svg width="151" height="40" viewBox="0 0 151 40" fill="none" xmlns="http://www.w3.org/2000/svg">
<g clip-path="url(#clip0_1221_4347)">
<path d="M31.9277 23.7507C31.8205 28.5587 29.4527 32.5653 25.632 35.5285C22.0641 38.2968 17.7591 39.6744 12.4127 39.4902C9.14912 39.3766 6.28412 38.6374 4.46912 37.5661C1.94054 36.0706 0.618402 33.9794 0.506973 31.3805C0.453402 30.1335 0.704116 29.1393 1.41126 28.2095C2.16126 27.2217 3.20483 26.7546 4.26983 26.6946C4.46269 26.6946 6.01412 26.6389 6.5734 28.143C7.09197 29.5379 5.82555 30.3113 5.82555 30.3113C6.20697 29.2058 5.22126 28.3123 4.27197 28.4473C3.58626 28.5437 2.92626 29.1672 2.6584 29.8442C1.64912 32.3896 3.2284 34.5108 4.38769 35.4943C6.29269 37.0241 9.29912 37.4097 9.29912 37.4097V9.59892C9.29912 9.16183 9.14054 8.85115 8.8534 8.66261C8.66269 8.53619 8.31983 8.4462 8.19983 8.37764C8.19983 8.37764 8.01983 8.31336 8.01983 8.15695C8.01126 8.05625 8.20412 7.95341 8.20412 7.95341C8.70126 7.67059 11.562 5.90938 12.3441 5.35231C12.9141 4.94093 13.2463 4.74381 13.4691 4.66668C13.692 4.58954 13.7648 4.75024 13.632 4.95807C13.3984 5.29017 12.7577 6.65286 12.5498 7.45847C12.3055 8.44406 12.177 9.50679 12.177 10.6638C12.177 10.6638 12.1598 37.5983 12.177 37.6261C12.177 37.6261 18.6741 37.9347 23.322 34.0609C26.592 31.3355 28.2055 27.7895 28.2055 23.4658C28.2055 22.0666 27.9013 20.7811 27.3013 19.5962C26.6841 18.4157 25.992 17.4601 24.9763 16.8152C23.9434 17.7515 21.822 19.6819 18.7855 19.8148C15.747 19.9476 15.2198 18.3278 15.2198 17.4986C15.2198 16.6695 15.6827 15.9753 16.602 15.3518C16.7584 15.2468 19.6041 13.132 24.1834 14.2226C24.2648 14.0598 25.1755 12.3371 25.062 9.77675C24.7727 3.24614 12.3805 -1.17616 5.14412 5.13162C2.59197 7.35563 2.71626 10.4859 4.13055 10.6488C5.18483 10.8352 6.24769 10.0017 6.24769 10.0017C6.10626 11.8851 2.30054 13.9591 1.04054 10.8909C0.513402 9.60535 0.498402 6.15792 4.5784 3.11116C13.5591 -3.59301 28.2205 1.49779 28.2205 9.30538C28.2205 12.3586 26.8213 14.4219 26.4184 15.0454C27.7963 15.6025 28.7413 16.1938 30.0505 17.8993C31.437 19.7055 31.9684 21.8695 31.9255 23.7507H31.9277ZM23.157 15.8703C23.157 15.8703 21.4127 15.1675 19.0063 15.896C17.3841 16.3866 17.0713 17.1344 17.1677 17.6915C17.2813 18.345 18.4063 18.9213 20.6584 17.8865C22.1005 17.233 23.1591 15.8724 23.1591 15.8724L23.157 15.8703Z" fill="#FCFAF8"></path>
<path d="M147.694 24.0744C149.924 29.8422 147.306 39.1025 134.762 39.5289C122.069 39.1668 120.861 27.6632 126.499 23.9994C130.583 21.3447 135.554 23.648 135.85 27.2583C136.092 30.2215 132.955 30.8257 132.955 30.8257C134.271 29.9108 134.579 27.3461 133.251 26.037C130.298 23.1273 125.845 25.4521 125.56 29.3494C125.26 33.4482 128.042 35.8608 131.179 36.6664C134.314 37.472 137.348 37.3884 140.277 35.7279C140.277 35.7279 144.745 33.2961 144.599 28.3403C144.447 23.1852 139.611 20.0334 134.648 17.7902C130.257 15.8061 127.525 14.0878 126.557 10.3554C125.924 7.92139 127.105 3.71977 130.617 1.75502C134.136 -0.338291 138.216 0.0602308 141.04 1.935C143.474 3.59336 143.969 5.98878 143.969 7.49287C143.969 10.5953 141.081 12.5172 138.424 11.5338C135.863 10.5868 136.268 7.53787 136.268 7.53787C136.341 8.26635 136.731 9.29908 138.01 9.95899C138.872 10.4025 140.243 10.5568 141.216 9.59904C142.131 8.69701 142.559 7.09007 141.578 5.15745C140.215 2.36994 135.248 0.6473 131.682 3.32125C128.609 5.62668 128.376 10.5525 132.925 13.1986C136.435 15.2405 144.927 17.4516 147.692 24.0722L147.694 24.0744Z" fill="#FCFAF8"></path>
<path d="M89.5417 32.1988C89.411 32.1988 87.7803 32.0895 86.741 32.0895C85.7017 32.0895 84.1996 32.2181 84.0517 32.2223C83.7646 32.2331 83.6103 32.1966 83.5653 31.9952C83.5182 31.7938 83.8117 31.4917 84.2039 31.0589C84.5167 30.729 84.6153 30.4333 84.5082 30.1612L80.9446 21.1644C80.2546 21.7622 79.4489 22.2722 78.671 22.7628C76.9846 23.8277 76.1296 25.0725 75.6046 26.9687C75.0817 25.0725 74.2181 23.8277 72.5317 22.7628C71.7539 22.2722 70.9546 21.7601 70.2646 21.1623L66.701 30.1633C66.5939 30.4333 66.6924 30.7311 67.0053 31.0611C67.3953 31.4939 67.7381 31.856 67.6181 32.0659C67.5281 32.2245 67.391 32.2223 67.1553 32.2223C67.0203 32.2138 65.5053 32.0895 64.466 32.0895C63.4267 32.0895 61.7917 32.2138 61.6653 32.1988C61.4103 32.1988 61.3331 32.0124 61.4274 31.8624C61.7167 31.4103 63.4481 30.8339 63.821 29.979C64.1939 29.1242 73.2796 6.10203 73.4103 5.74636C73.6053 5.215 73.3931 4.72435 72.9731 4.3044C72.7181 4.04943 72.5017 3.8566 72.3389 3.71519C71.7196 3.18168 71.8953 2.89672 72.3839 2.93743C72.8724 2.97814 74.0853 3.27596 75.5682 3.27596C77.051 3.27596 78.6689 2.92886 78.8039 2.94386C79.3824 2.88601 79.3503 3.2481 79.1017 3.4945C78.8553 3.7409 78.7953 3.80089 78.2339 4.30654C77.8032 4.7372 77.606 5.27285 77.7967 5.74851L87.3732 29.9362C87.7032 30.7868 89.1946 31.271 89.726 31.8002C89.9124 31.9867 89.7967 32.1988 89.5417 32.1988ZM80.0724 18.964L75.6024 7.67469L71.1346 18.9576C71.6939 19.4182 72.3153 19.8232 72.9196 20.2131C74.3939 21.158 75.146 22.255 75.6024 23.9241C76.0589 22.255 76.8046 21.158 78.2789 20.2131C78.8853 19.8253 79.5131 19.4225 80.0724 18.9619V18.964Z" fill="#FCFAF8"></path>
<path d="M61.6506 12.0392C61.1513 12.517 60.6306 12.7227 59.9106 12.7227C59.062 12.7227 57.7077 12.0885 57.892 10.5973C57.9927 9.78308 58.5992 9.34385 58.5992 9.34385C58.3827 9.9502 58.5177 10.8822 59.242 11.1351C60.2277 11.4779 61.1899 10.3016 60.8342 8.93462C60.6477 8.22328 60.1784 7.37053 59.392 6.57991C58.7299 5.91571 58.0763 5.43577 57.1913 4.98582C56.8806 4.82942 56.572 4.688 56.2613 4.55731V30.022C56.2613 30.5148 56.5313 30.7912 56.947 31.1104C57.3799 31.4447 57.7677 31.6139 57.892 31.8003C57.9734 31.9246 57.9542 32.1153 57.697 32.171C57.3563 32.2674 55.8306 32.0103 54.7913 32.0103C53.752 32.0103 52.6206 32.2096 52.0934 32.2696C51.5642 32.3317 51.5277 31.9632 51.817 31.7553C52.1556 31.5111 53.3084 31.0011 53.3084 30.1034V23.7271C51.0756 24.0442 48.8427 23.6328 48.8427 23.6328C47.0834 27.8837 43.6613 32.8823 38.7284 36.2998C31.4127 41.367 26.0234 39.7536 26.0234 39.7536C29.842 39.2287 34.0699 37.5125 37.4342 34.4229C43.0077 29.3042 44.3556 25.6532 45.7013 22.9172C45.7013 22.9172 36.3863 20.2839 36.3863 11.2786C36.3863 8.3754 38.0877 2.09119 48.4613 2.09119C50.4156 2.09119 52.0463 2.21974 53.3534 2.48971C54.997 2.82395 56.6149 3.40459 58.1663 4.31091C59.3234 4.98797 60.3113 5.80858 61.0142 6.61848C62.5356 8.37326 62.8506 10.8887 61.6506 12.0349V12.0392ZM53.3042 21.9851V3.74741C52.4706 3.63171 51.3092 3.561 49.8134 3.561C40.5306 3.561 39.8127 9.4874 39.8127 12.2085C39.8127 18.2163 44.6556 20.8346 47.1327 21.4366C49.6099 22.0387 50.902 22.1094 53.3042 21.983V21.9851Z" fill="#FCFAF8"></path>
<path d="M90.2126 6.62251C90.9154 5.81261 91.9033 4.992 93.0604 4.31494C94.6119 3.40648 96.2297 2.82798 97.8733 2.49374C99.1804 2.22163 100.811 2.09521 102.765 2.09521C113.137 2.09521 114.84 8.37943 114.84 11.2826C114.84 20.2858 105.525 22.9212 105.525 22.9212C106.871 25.6594 108.219 29.3082 113.793 34.4269C117.157 37.5165 121.385 39.2327 125.203 39.7576C125.203 39.7576 119.814 41.371 112.498 36.3038C107.565 32.8864 104.143 27.8877 102.384 23.6368C102.384 23.6368 100.151 24.0482 97.9183 23.7311V30.1074C97.9183 31.0052 99.0711 31.5151 99.4097 31.7594C99.699 31.9672 99.6626 32.3357 99.1333 32.2736C98.604 32.2136 97.4747 32.0143 96.4354 32.0143C95.3961 32.0143 93.8726 32.2714 93.5297 32.175C93.2726 32.1193 93.2511 31.9286 93.3347 31.8044C93.459 31.618 93.8469 31.4487 94.2797 31.1144C94.6933 30.7952 94.9633 30.5188 94.9633 30.026V4.56134C94.6526 4.68989 94.344 4.83344 94.0333 4.98985C93.1483 5.4398 92.4947 5.91974 91.8326 6.58394C91.0461 7.37455 90.5747 8.22731 90.3904 8.93864C90.0347 10.3035 90.999 11.4819 91.9847 11.1391C92.709 10.8863 92.844 9.95423 92.6276 9.34788C92.6276 9.34788 93.234 9.78711 93.3347 10.6013C93.519 12.0925 92.1647 12.7267 91.3161 12.7267C90.5961 12.7267 90.0754 12.5189 89.5761 12.0433C88.3783 10.8991 88.6911 8.38157 90.2126 6.62679V6.62251ZM104.092 21.4364C106.569 20.8343 111.412 18.2182 111.412 12.2082C111.412 9.48715 110.696 3.56075 101.411 3.56075C99.9154 3.56075 98.754 3.63145 97.9204 3.74715V21.9849C100.323 22.1113 101.613 22.0384 104.092 21.4385V21.4364Z" fill="#FCFAF8"></path>
<path d="M117.78 6.34219C119.158 6.60145 120.411 6.20935 121.189 5.74869C122.447 5.00307 122.955 3.6361 122.908 2.82834C122.861 2.02059 122.586 1.44209 122.113 0.996431C121.633 0.546487 120.975 0.368652 120.39 0.368652C119.805 0.368652 119.344 0.495065 118.941 0.777887C118.208 1.29425 118.093 2.05701 118.17 2.41268C118.335 3.18616 118.984 3.33185 118.984 3.33185C118.984 3.33185 119.117 2.38269 120.034 2.43625C120.951 2.48982 121.328 3.81179 120.6 5.02878C119.871 6.24578 118.256 6.32719 117.782 6.31648C117.716 6.31648 117.771 6.34005 117.782 6.34219H117.78Z" fill="#FCFAF8"></path>
<path d="M146.793 1.92619H147.397V1.43982H145.646V1.92619H146.264V5.35004H146.793V1.92619Z" fill="#FCFAF8"></path>
<path d="M149.579 5.35231L149.884 3.16044L149.954 2.63765L150.036 2.102C150.036 2.27127 150.029 2.40196 150.029 2.48338C150.023 2.71692 150.023 2.84762 150.023 2.87119V5.35017H150.499V1.43994H149.74L149.434 3.52468C149.41 3.68323 149.404 3.79036 149.363 4.25316C149.339 3.89535 149.327 3.74751 149.292 3.53111L148.941 1.43994H148.219V5.35231H148.694V2.84977C148.694 2.58623 148.688 2.44482 148.677 2.10414L148.718 2.32697L148.789 2.87333L149.147 5.35231H149.575H149.579Z" fill="#FCFAF8"></path>
</g>
<defs>
<clipPath id="clip0_1221_4347">
<rect width="150" height="40" fill="white" transform="translate(0.5)"></rect>
</clipPath>
</defs>
</svg>
