<svg width="2103" height="1989" viewBox="0 0 2103 1989" fill="none" xmlns="http://www.w3.org/2000/svg">
<path d="M1961.05 495.593C1924.35 435.735 1851.16 414.905 1754.9 433.473C1753.4 426.793 1750.78 420.166 1746.95 413.959C1733.21 391.552 1707.8 379.611 1682.22 380.874C1666.64 305.446 1634.39 225.81 1585.67 142.072C1580.84 133.761 1571.49 128.659 1561.43 128.922C1458.88 131.236 1368.68 145.386 1291.1 171.265C1289.66 167.32 1287.82 163.427 1285.54 159.693C1269.3 133.182 1236.71 121.295 1206.85 128.659C1174.87 45.9724 1120.32 -0.157395 1049.47 0.000403511C977.397 0.105603 922.287 48.1816 890.922 133.814C874.016 130.079 855.72 132.13 839.537 140.967C825.801 148.489 815.791 159.798 810.063 172.685C732.096 146.7 641.394 132.656 538.123 130.71C528.058 130.553 518.771 135.707 513.933 143.965C464.16 230.071 431.906 311.863 417.113 389.079C402.042 387.08 386.193 389.605 372.012 397.39C356.219 406.069 345.374 419.692 340.258 434.946C246.664 418.535 175.649 439.996 139.946 498.855C104.855 556.556 119.704 623.831 178.763 690.738C152.57 711.094 144.951 746.967 162.524 775.581C165.082 779.736 168.03 783.523 171.311 786.942C111.195 837.122 55.3611 902.609 3.9206 983.138C-1.30687 991.291 -1.30687 1001.44 3.9206 1009.6C55.8616 1090.18 112.141 1155.56 172.701 1205.58C155.017 1226.41 151.624 1256.24 166.64 1280.75C170.922 1287.69 176.371 1293.63 182.544 1298.47C121.594 1366.54 106.079 1434.97 141.892 1493.35C178.429 1552.95 250.946 1573.88 346.376 1555.9C347.877 1562.79 350.491 1569.52 354.384 1575.94C368.398 1598.82 394.646 1610.81 420.839 1608.92C436.522 1684.08 468.665 1763.51 517.269 1846.93C522.107 1855.24 531.45 1860.34 541.516 1860.08C643.396 1857.82 732.93 1843.88 810.119 1818.31C811.565 1822.36 813.456 1826.36 815.847 1830.2C832.419 1857.24 865.953 1869.02 896.261 1860.76C928.293 1943.13 982.737 1989.11 1053.42 1989C1125.16 1988.89 1180.1 1941.29 1211.58 1856.34C1228.15 1859.76 1246.06 1857.61 1261.85 1848.93C1276.03 1841.14 1286.21 1829.36 1291.88 1816C1370.07 1842.19 1461.11 1856.34 1564.82 1858.29C1574.83 1858.5 1584.17 1853.4 1589.01 1845.03C1638.51 1759.3 1670.7 1677.93 1685.61 1600.97C1700.29 1602.66 1715.58 1600.08 1729.37 1592.5C1745.56 1583.62 1756.57 1569.57 1761.52 1553.84C1855.72 1570.62 1927.13 1549.21 1963.05 1490.15C1998.2 1432.39 1983.3 1365.06 1924.07 1298.1C1949.15 1277.59 1956.16 1242.45 1938.86 1214.31C1936.36 1210.26 1933.47 1206.53 1930.3 1203.16C1990.97 1152.82 2047.25 1087.02 2099.08 1005.86C2104.31 997.709 2104.31 987.504 2099.08 979.404C2047.03 898.664 1990.58 833.125 1929.91 783.05C1946.65 762.273 1949.6 733.186 1934.86 709.148C1930.69 702.362 1925.4 696.576 1919.45 691.79C1981.35 623.253 1997.25 554.399 1961.22 495.593H1961.05Z" fill="#231F20"/>
</svg>
