<?xml version="1.0" encoding="UTF-8"?>
<svg id="Layer_2" data-name="Layer 2" xmlns="http://www.w3.org/2000/svg" viewBox="0 0 200.05 200.05">
  <defs>
    <style>
      .cls-1 {
        fill: #e65300;
      }

      .cls-2 {
        fill: #fff;
      }
    </style>
  </defs>
  <g id="Layer_1-2" data-name="Layer 1">
    <path class="cls-1" d="m74.14,196.62c53.35,14.29,108.18-17.36,122.47-70.71,14.29-53.35-17.36-108.18-70.71-122.47C72.56-10.86,17.73,20.8,3.43,74.14c-14.29,53.35,17.36,108.18,70.71,122.47Z"/>
    <path class="cls-2" d="m50.89,43.91l-1.53,1.28-6.75-8.08,3.24-2.71c2.01-1.68,3.76-1.58,5.26.23,1.29,1.54,1.21,3.56-.69,5.15l-1.76,1.47,2.23,2.67Zm-3.28-3.94l1.59-1.32c1.13-.94,1.23-1.79.43-2.75-.82-.99-1.6-1.08-2.81-.08l-1.57,1.32,2.38,2.84h0Z"/>
    <path class="cls-2" d="m57.67,38.62l-1.68,1.08-5.73-8.83,3.71-2.4c2.2-1.43,3.86-1.18,4.99.57.89,1.39.78,2.76-.24,3.93l4.63,1.73.1.16-1.95,1.27-4.34-1.89-1.65,1.07,2.14,3.32h.01Zm-3.06-4.73l1.88-1.22c1.15-.75,1.47-1.56.85-2.53-.59-.9-1.3-1.01-2.58-.19l-1.92,1.24,1.74,2.69h.02Z"/>
    <path class="cls-2" d="m61.02,30.14c-1.42-3-.57-5.77,2.41-7.19,3-1.42,5.68-.32,7.1,2.67,1.43,3.01.66,5.81-2.38,7.25-3.06,1.46-5.7.28-7.12-2.74h-.01Zm7.7-3.66c-.95-1.99-2.51-2.91-4.54-1.94-2.04.97-2.32,2.75-1.38,4.76.98,2.06,2.53,3,4.57,2.02,2.06-.98,2.32-2.75,1.34-4.83h.01Z"/>
    <path class="cls-2" d="m78.75,24.17l-1.92-6.07,1.89-.6,1.96,6.21c.82,2.61-.2,4.49-2.93,5.36-2.76.88-4.77-.04-5.6-2.66l-1.96-6.21,1.91-.61,1.91,6.02c.48,1.5,1.37,2.34,3.22,1.76,1.78-.56,2-1.7,1.53-3.2h-.01Z"/>
    <path class="cls-2" d="m81.21,16.91l4.22-.72c3.58-.61,5.53.92,6.1,4.2.56,3.29-1.07,5.61-4.31,6.16l-4.22.72-1.78-10.37h-.01Zm5.56,8.04c2.44-.42,3.18-1.9,2.78-4.23-.42-2.44-1.62-3.28-4.1-2.86l-1.99.34,1.22,7.11,2.1-.36h-.01Z"/>
    <path class="cls-2" d="m96.08,25.46l-.08-10.53,7.26-.05v1.85s-5.25.04-5.25.04l.03,3.14,4.75-.03v1.73s-4.74.03-4.74.03l.03,3.81h-2Z"/>
    <path class="cls-2" d="m104.28,25.5l-2.06-.21,4.95-10.07,2.69.28,2.84,10.86-2.13-.22-.66-2.76-4.45-.45-1.18,2.57h0Zm2.42-5.25l-.58,1.24,3.44.35-.31-1.33c-.26-1.11-.5-2.33-.69-3.41l-.45-.05c-.42,1.02-.93,2.14-1.4,3.19h0Z"/>
    <path class="cls-2" d="m119.34,25.25c.61-1.09,1.38-2.34,1.85-3.03l2.7-3.94,2.98.75-2.56,10.21-1.94-.49,1.18-4.72c.3-1.19.72-2.69,1.06-3.88l-.29-.08c-.69,1.2-1.55,2.64-2.43,3.92l-2.43,3.43-1.89-.48-.46-4.22c-.15-1.64-.22-3.16-.26-4.51l-.27-.07c-.24,1.04-.55,2.29-.83,3.39-.05.17-.09.34-.14.51l-1.18,4.72-1.8-.45,2.56-10.21,3.18.8.47,4.8c.07.74.17,2.21.22,3.47l.27.07h.01Z"/>
    <path class="cls-2" d="m125.43,29.91l3.71-9.86,1.87.71-3.71,9.86-1.87-.71Z"/>
    <path class="cls-2" d="m131.36,30.37l4.31,2-.76,1.62-6.13-2.85,4.44-9.55,1.81.85-3.69,7.93h.01Z"/>
    <path class="cls-2" d="m136.51,34.97l1.74-3.01.06-7.89.1-.17,1.88,1.08-.43,5.95.24.14,4.95-3.34,1.84,1.06-.1.17-6.82,4.01-1.73,2.99-1.73-1h0Z"/>
    <path class="cls-2" d="m145.63,40.98l-1.55-1.26,6.67-8.13,3.41,2.8c2.04,1.66,2.29,3.31.97,4.92-1.04,1.27-2.38,1.58-3.81.98l-.23,4.93-.12.15-1.8-1.48.48-4.71-1.52-1.25-2.5,3.05Zm3.57-4.35l1.73,1.43c1.05.86,1.93.93,2.66.05.68-.82.57-1.56-.59-2.51l-1.77-1.45-2.03,2.48Z"/>
    <path class="cls-2" d="m151.31,45.75l7.6-7.27,5.25,5.49-1.25,1.2-3.87-4.04-1.88,1.8,3.5,3.66-1.24,1.19-3.5-3.66-1.98,1.89,3.86,4.03-1.25,1.2-3.86-4.03-1.38-1.45Z"/>
    <path class="cls-2" d="m161.09,48.33c2.73-2.03,5.57-1.7,7.46.84,1.62,2.18,1.41,4.39-.4,6.2l-1.44-1.32c1.18-1.27,1.4-2.52.4-3.87-1.28-1.72-3.1-1.54-4.83-.26-1.86,1.39-2.46,3.01-1.19,4.71,1.06,1.42,2.3,1.51,3.92.74l.85,1.73c-2.25,1.24-4.49.81-6.16-1.43-1.93-2.59-1.34-5.33,1.39-7.36v.02Z"/>
    <path class="cls-2" d="m163.13,60.29l8.99-5.49,1.04,1.71-8.98,5.49-1.04-1.71h0Z"/>
    <path class="cls-2" d="m165.89,65.03l-.9-1.78,9.4-4.73,1.9,3.78c1.18,2.33.68,4.01-1.42,5.07-1.78.9-3.74.36-4.85-1.84l-1.03-2.06-3.1,1.56Zm4.58-2.29l.93,1.85c.66,1.32,1.47,1.59,2.58,1.03,1.15-.57,1.42-1.32.72-2.72l-.92-1.83-3.3,1.66h0Z"/>
    <path class="cls-2" d="m168.8,70.99l9.88-3.62,2.61,7.13-1.63.6-1.93-5.26-2.43.89,1.74,4.76-1.61.59-1.74-4.76-2.57.94,1.92,5.24-1.63.6-1.92-5.24-.69-1.87h0Z"/>
    <path class="cls-2" d="m20.42,75.3l.55-1.92,10.12,2.89-1.21,4.25c-.72,2.53-2.13,3.43-4.14,2.85-1.59-.46-2.4-1.56-2.41-3.12l-4.62,1.74-.18-.05.64-2.25,4.51-1.43.54-1.89-3.79-1.08h0Zm5.41,1.54l-.62,2.15c-.37,1.32-.09,2.15,1.01,2.46,1.03.3,1.65-.1,2.06-1.55l.63-2.19-3.09-.88h0Z"/>
    <path class="cls-2" d="m17.97,84.98l10.42,1.45-1.04,7.52-1.72-.24.77-5.54-2.57-.36-.69,5.02-1.7-.24.69-5.02-2.72-.38-.76,5.52-1.72-.24.76-5.52.27-1.98h0Z"/>
    <path class="cls-2" d="m21.93,95.4c3.41,0,5.48,1.95,5.49,5.1,0,2.72-1.48,4.38-4,4.75l-.38-1.91c1.7-.32,2.63-1.2,2.62-2.87,0-2.14-1.58-3.08-3.73-3.08-2.31.01-3.77.96-3.77,3.08.01,1.77.96,2.57,2.72,2.92l-.34,1.9c-2.55-.34-4.1-2.02-4.1-4.82-.01-3.23,2.08-5.07,5.49-5.09v.02Z"/>
    <path class="cls-2" d="m17.03,108.6l10.41-1.55,1.12,7.51-1.71.25-.83-5.53-2.57.38.75,5.01-1.7.25-.75-5.01-2.71.4.82,5.51-1.71.25-.82-5.52-.3-1.97v.02Z"/>
    <path class="cls-2" d="m28.73,115.44l2.28,8.18-1.77.5-.87-3.12-8.37,2.33-.54-1.92,8.37-2.33-.87-3.12,1.77-.5h0Z"/>
    <path class="cls-2" d="m31.24,124.3l3.29,7.82-1.69.72-1.26-2.99-8,3.36-.77-1.84,8-3.36-1.26-2.99,1.69-.72Z"/>
    <path class="cls-2" d="m26.14,138.73l9.1-5.29,3.82,6.56-1.5.87-2.81-4.83-2.24,1.3,2.55,4.38-1.48.86-2.55-4.38-2.37,1.37,2.81,4.82-1.5.87-2.81-4.82-1.01-1.73h-.01Z"/>
    <path class="cls-2" d="m34.15,151.18l8.05-6.78,4.68,5.56-1.41,1.19-3.39-4.03-2.41,2.03,3.06,3.64-1.32,1.12-3.06-3.64-2.91,2.45-1.29-1.52h0Z"/>
    <path class="cls-2" d="m40.71,158.58l7.41-7.48,1.42,1.41-7.41,7.48-1.42-1.41Z"/>
    <path class="cls-2" d="m44.49,162.28l6.66-8.15,5.89,4.81-1.09,1.34-4.33-3.54-1.65,2.01,3.92,3.2-1.09,1.33-3.92-3.2-1.73,2.12,4.32,3.53-1.09,1.34-4.32-3.53-1.55-1.26h0Zm8.5-9.43l1.27-.83,2.43,4.1-.86.59-2.83-3.85h0Z"/>
    <path class="cls-2" d="m54.94,170.16l-1.71-1.04,5.46-9,3.77,2.29c2.25,1.37,2.74,2.96,1.66,4.74-.85,1.41-2.14,1.9-3.64,1.51l.46,4.92-.09.16-2-1.21-.19-4.73-1.68-1.02-2.04,3.38h0Zm2.91-4.81l1.92,1.17c1.17.71,2.05.65,2.64-.33.56-.92.34-1.62-.94-2.4l-1.95-1.18-1.67,2.74h0Z"/>
    <path class="cls-2" d="m63.56,175.06l4.17-9.66,6.98,3.01-.69,1.6-5.14-2.22-1.03,2.39,4.66,2.01-.68,1.58-4.66-2.01-1.09,2.51,5.12,2.21-.69,1.6-5.12-2.21-1.84-.79h0Z"/>
    <path class="cls-2" d="m80.81,178.37c.61-1.09,1.39-2.35,1.84-3.03l2.7-3.94,2.98.75-2.54,10.21-1.94-.48,1.17-4.73c.3-1.19.72-2.7,1.06-3.88l-.29-.08c-.67,1.21-1.55,2.64-2.42,3.92l-2.43,3.43-1.89-.47-.47-4.21c-.15-1.64-.23-3.17-.27-4.51l-.27-.07c-.24,1.04-.55,2.29-.83,3.39-.05.17-.09.34-.14.51l-1.18,4.74-1.8-.45,2.54-10.21,3.18.79.48,4.8c.07.74.17,2.21.22,3.48l.27.07.02-.03Z"/>
    <path class="cls-2" d="m89.83,182.82l.83-10.49,7.57.6-.13,1.73-5.58-.44-.21,2.59,5.05.4-.14,1.71-5.05-.4-.21,2.73,5.56.44-.13,1.74-5.56-.44-2-.16h0Z"/>
    <path class="cls-2" d="m104.53,178.46c-.67-1.03-1.49-2.62-2.1-3.83l-.31.04c.21,1.51.44,3.7.54,5.09l.24,3.61-1.88.13-.71-10.5,2.86-.19,2.58,3.95c.86,1.32,1.77,3.03,2.32,4.2l.31-.04c-.2-1.48-.42-3.41-.51-4.78l-.25-3.64,1.84-.13.71,10.5-2.62.18-3.01-4.6h-.01Z"/>
    <path class="cls-2" d="m110.94,172.15l8.31-1.76.39,1.8-3.17.67,1.8,8.5-1.96.42-1.8-8.5-3.17.67-.39-1.8h0Z"/>
    <path class="cls-2" d="m127.78,178.68l-3.9-9.77,6.75-2.7.68,1.71-4.89,1.95,1.16,2.92,4.42-1.77.65,1.61-4.42,1.77,1.41,3.54-1.86.75h0Z"/>
    <path class="cls-2" d="m137.37,174.59l-1.81,1-1.64-11.11,2.37-1.3,8.5,7.35-1.88,1.03-2.11-1.9-3.92,2.16.49,2.79h0Zm-.99-5.7l.23,1.36,3.03-1.66-1.01-.92c-.84-.76-1.74-1.63-2.5-2.41l-.4.22c.23,1.08.46,2.29.65,3.43h0Z"/>
    <path class="cls-2" d="m150.52,162.93c-.5-1.16-1.03-2.52-1.29-3.31l-1.49-4.54,2.4-1.92,6.56,8.23-1.57,1.25-3.04-3.82c-.77-.96-1.7-2.21-2.43-3.2l-.24.18c.54,1.27,1.16,2.83,1.64,4.3l1.25,4.01-1.53,1.22-3.63-2.2c-1.4-.88-2.65-1.74-3.75-2.54l-.22.18c.68.82,1.48,1.83,2.19,2.72l.32.41,3.04,3.82-1.45,1.16-6.56-8.23,2.57-2.05,4.12,2.53c.63.4,1.86,1.21,2.89,1.93l.22-.18v.02Z"/>
    <path class="cls-2" d="m159.21,158.71l-7.56-7.34,1.4-1.44,7.55,7.33-1.39,1.44Z"/>
    <path class="cls-2" d="m162.61,152.34l3-3.68,1.39,1.13-4.27,5.23-8.16-6.65,1.26-1.55,6.77,5.52h0Z"/>
    <path class="cls-2" d="m168.37,147.74l-8.71-5.93,1.13-1.65,8.7,5.93-1.13,1.65h0Z"/>
    <path class="cls-2" d="m171.82,142.5l-.98,1.82-7.4-8.44,1.29-2.38,11.12,1.56-1.02,1.88-2.81-.46-2.13,3.93,1.93,2.08h0Zm-3.92-4.25l.93,1.01,1.64-3.04-1.35-.23c-1.12-.19-2.34-.43-3.4-.66l-.22.4c.77.78,1.62,1.68,2.41,2.52h-.01Z"/>
    <path class="cls-2" d="m175.79,130.22l1.7-4.44,1.67.63-2.41,6.31-9.83-3.75.72-1.87,8.16,3.12Z"/>
    <path class="cls-2" d="m180.01,123.69l-10.21-2.54,1.83-7.37,1.69.42-1.35,5.43,2.52.62,1.22-4.92,1.67.42-1.23,4.92,2.66.66,1.35-5.42,1.68.42-1.35,5.42-.48,1.94h0Z"/>
    <path class="cls-2" d="m73.61,53.81l-1.39.94-2.78-4.09c-.43-.63-1.43-2.13-1.67-2.53.16.49.73,2.26,1,3.16l1.58,5.14-4.19-3.37c-.73-.58-2.18-1.76-2.57-2.1.28.39,1.3,1.85,1.73,2.49l2.78,4.09-1.34.9-6.9-10.16,1.49-1.02,4.17,3.33c.61.48,1.79,1.5,2.13,1.79-.16-.45-.68-1.97-.9-2.7l-1.53-5.07,1.48-1,6.9,10.16v.02Z"/>
    <path class="cls-2" d="m81.4,50.17l-1.7.79-2.01-2.65-2.42,1.11.72,3.24-1.66.77-2.39-12.41,1.61-.74,7.85,9.9Zm-4.71-3.2l-1.28-1.69c-.5-.66-1.33-1.84-1.6-2.22.11.45.46,1.83.64,2.66l.45,2.07,1.78-.82Z"/>
    <path class="cls-2" d="m87.23,42.03c1,3.51.46,6.31-2.04,7.02l-2.87.82-3.38-11.81,2.87-.83c2.61-.75,4.41,1.27,5.42,4.78h0Zm-1.71.5c-.59-2.07-1.65-4.11-3.3-3.63l-1.17.33,2.46,8.57,1.21-.35c1.58-.46,1.4-2.85.8-4.92Z"/>
    <path class="cls-2" d="m96.18,46.97l-5.94.81-1.66-12.16,5.72-.78.22,1.65-4.02.55.44,3.25,2.62-.35.22,1.63-2.62.35.54,3.98,4.24-.57.22,1.65h.01Z"/>
    <path class="cls-2" d="m103.18,47.02l-1.72-.08.54-12.27,1.72.08-.54,12.27Z"/>
    <path class="cls-2" d="m112,48.21l-1.39-.23-1.86-6.98c-.16-.56-.42-1.76-.52-2.13-.06.45-.27,1.84-.36,2.43l-1,6.06-1.66-.28,2.01-12.12,1.7.28,1.66,6.2c.16.56.42,1.76.52,2.13.06-.45.27-1.84.36-2.43l.88-5.33,1.66.28-2.01,12.12h0Z"/>
    <path class="cls-2" d="m124.36,49.47c-1.05,1.56-2.32,2.41-4.19,1.65-2.46-1-2.29-3.98-.98-7.21,1.34-3.3,3.37-5.48,5.78-4.51,1.91.77,2.22,2.24,1.83,3.98l-1.78-.25c.2-1.11.12-1.79-.76-2.14-1.38-.56-2.62,1.54-3.42,3.54-.85,2.09-1.29,4.45.09,5.01.77.31,1.33-.07,2.13-1.16l1.29,1.07h0Z"/>
    <path class="cls-2" d="m130.32,56.25l-1.62-.95,1.02-3.16-2.3-1.35-2.25,2.44-1.57-.93,8.83-9.05,1.53.9-3.65,12.11Zm-.07-5.7l.65-2.02c.26-.78.75-2.14.91-2.58-.31.35-1.25,1.42-1.81,2.05l-1.44,1.55,1.69.99h0Z"/>
    <path class="cls-2" d="m136.36,61.17l-1.09-.89,1.89-6.96c.15-.56.52-1.74.61-2.1-.27.36-1.16,1.46-1.53,1.92l-3.9,4.74-1.3-1.07,7.8-9.48,1.32,1.09-1.66,6.19c-.15.56-.52,1.74-.62,2.1.27-.36,1.16-1.46,1.53-1.92l3.43-4.18,1.3,1.07-7.79,9.49Z"/>
    <path class="cls-2" d="m142.21,67.59l-1.25-1.4,1.94-2.7-1.78-1.99-2.89,1.64-1.21-1.36,11.18-5.91,1.18,1.32-7.18,10.41h0Zm1.69-5.44l1.25-1.72c.49-.67,1.37-1.81,1.66-2.17-.4.24-1.62.97-2.35,1.39l-1.85,1.04,1.3,1.47h0Z"/>
    <path class="cls-2" d="m151.7,70.77c-3.06,1.99-5.9,2.29-7.32.11l-1.63-2.5,10.3-6.7,1.63,2.5c1.48,2.28.08,4.6-2.98,6.58h0Zm-.97-1.49c1.81-1.18,3.45-2.78,2.51-4.22l-.66-1.02-7.47,4.86.69,1.06c.9,1.38,3.13.5,4.93-.68h0Z"/>
    <path class="cls-2" d="m149.87,81.38l-.79-1.7,2.65-2.01-1.12-2.42-3.25.72-.77-1.66,12.42-2.4.74,1.61-9.9,7.86h.01Zm3.19-4.72l1.69-1.28c.66-.5,1.84-1.33,2.22-1.6-.45.11-1.83.46-2.66.64l-2.07.45.83,1.78h0Z"/>
    <path class="cls-2" d="m47.85,102.67l.05-4.14-3.36-.04-.04,2.65-1.65-.03.04-2.65-5.59-.08.03-1.72,12.27.17-.08,5.86-1.66-.02h0Z"/>
    <path class="cls-2" d="m38.26,111.75l-.24-1.86,3.13-1.12-.34-2.65-3.31-.29-.23-1.81,12.56,1.46.22,1.76-11.81,4.51h0Zm4.47-3.53l1.99-.71c.78-.28,2.16-.71,2.6-.86-.47-.03-1.89-.11-2.73-.18l-2.11-.19.24,1.95h0Z"/>
    <path class="cls-2" d="m44.66,120.78c-2.35.73-3.95-.25-4.55-2.19l-.96-3.11,11.74-3.62.91,2.95c.58,1.86.08,3.54-2.1,4.21-.96.29-2.13.18-2.85-.63-.05,1.1-.91,2-2.18,2.4h0Zm-.52-1.67c1.31-.4,1.6-1.34,1.3-2.37l-.4-1.31-3.79,1.17.45,1.48c.3.99,1.04,1.46,2.45,1.03Zm4.99-1.76c1.16-.35,1.36-1.11,1.09-2.01l-.43-1.38-3.18.98.42,1.34c.26.87.98,1.4,2.11,1.06Z"/>
    <path class="cls-2" d="m45.88,131.88l-.87-1.7,3.91-4.1-.66-1.26-4.76,2.44-.78-1.52,10.93-5.61,1.58,3.07c.81,1.6.7,3.48-1.47,4.6-1.57.81-2.82.58-3.76-.24l-4.13,4.33h0Zm7.03-5.63c1.13-.58,1.25-1.49.78-2.41l-.73-1.42-3.22,1.65.73,1.42c.5.98,1.3,1.34,2.44.76Z"/>
    <path class="cls-2" d="m48.93,136.42l-.98-1.41,10.1-6.97.98,1.41-10.1,6.97Z"/>
    <path class="cls-2" d="m60.63,140.82c-1.59,1.44-3.25,2.35-4.68,2.44l-.29,1.1-1.33-.43.23-.87c-.4-.15-.78-.38-1.11-.75-1.74-1.93-.43-4.61,2.21-7,2.64-2.39,5.43-3.43,7.18-1.51,1.74,1.93.44,4.61-2.2,7.01h0Zm-1.17-1.3c1.69-1.53,3.1-3.44,2.1-4.55-1-1.11-3.04.13-4.73,1.65-1.69,1.54-3.15,3.47-2.15,4.58.08.09.19.19.31.24l.4-1.48,1.31.43-.31,1.15c.99-.29,2.07-1.11,3.05-2.01h.01Z"/>
    <path class="cls-2" d="m66.88,149.07c-1.45,1.9-3.39,2.24-5.06.96-1.61-1.24-1.81-3.29-.46-5.06l5.31-6.94,1.37,1.05-5.27,6.88c-.62.81-.91,1.91.11,2.69,1.07.83,2.05.18,2.63-.57l5.28-6.9,1.35,1.03-5.24,6.86Z"/>
    <path class="cls-2" d="m73.82,157.11l-5.31-2.78,5.7-10.88,5.11,2.67-.77,1.48-3.59-1.88-1.52,2.9,2.34,1.23-.76,1.46-2.34-1.23-1.86,3.56,3.78,1.99-.77,1.47h0Zm7.3-14.09l-3.56,1.3-1.27-.66,2.73-1.73,2.1,1.1h0Z"/>
    <path class="cls-2" d="m88.69,161.84l-1.82-.46.08-3.32-2.59-.64-1.46,2.98-1.77-.44,5.9-11.19,1.72.43-.05,12.64Zm-1.68-5.44l.06-2.12c.02-.82.11-2.27.14-2.73-.2.42-.79,1.71-1.16,2.47l-.94,1.9,1.9.48h0Z"/>
    <path class="cls-2" d="m99.19,159.21c-.17,2.38-1.61,3.73-3.71,3.57-2.03-.15-3.32-1.76-3.15-3.98l.65-8.71,1.72.13-.64,8.64c-.07,1.01.29,2.1,1.56,2.19,1.35.1,1.81-.97,1.88-1.92l.64-8.65,1.7.12-.64,8.6h0Z"/>
    <path class="cls-2" d="m114.07,158.26c-.05,1.88-.67,3.28-2.65,3.64-2.6.47-4.06-2.13-4.69-5.56-.63-3.5-.09-6.44,2.47-6.9,2.02-.37,3.07.71,3.68,2.38l-1.63.74c-.42-1.05-.85-1.57-1.79-1.4-1.47.27-1.38,2.72-1,4.84.41,2.23,1.29,4.46,2.76,4.19.82-.14,1.1-.77,1.18-2.13l1.66.22h0Z"/>
    <path class="cls-2" d="m124.94,157.72l-1.76.63-1.77-2.8-2.51.9.44,3.29-1.72.62-1.33-12.57,1.66-.6,6.98,10.53h0Zm-4.43-3.59l-1.13-1.79c-.43-.7-1.16-1.95-1.4-2.34.07.46.3,1.87.42,2.7l.27,2.1,1.85-.66Z"/>
    <path class="cls-2" d="m134.4,152.6l-1.21.7-5.86-4.21c-.48-.34-1.44-1.09-1.75-1.32.24.38.96,1.59,1.26,2.11l3.07,5.32-1.46.84-6.14-10.63,1.48-.87,5.21,3.74c.48.34,1.44,1.09,1.75,1.32-.25-.39-.96-1.59-1.26-2.11l-2.7-4.68,1.46-.84,6.14,10.63h.01Z"/>
    <path class="cls-2" d="m143.5,145.39l-1.43,1.21-2.65-2.01-2.04,1.72,1.56,2.93-1.39,1.18-5.63-11.33,1.35-1.15,10.22,7.45Zm-5.39-1.83l-1.68-1.29c-.65-.51-1.77-1.42-2.14-1.71.23.4.93,1.65,1.33,2.38l.99,1.88,1.5-1.26h.01Z"/>
    <path class="cls-2" d="m145.82,133.38c2.8,2.34,3.93,4.97,2.27,6.95l-1.91,2.29-9.44-7.86,1.91-2.29c1.74-2.09,4.37-1.43,7.17.91Zm-1.14,1.36c-1.66-1.39-3.68-2.47-4.78-1.15l-.78.93,6.85,5.71.81-.97c1.05-1.27-.45-3.13-2.1-4.52Z"/>
    <path class="cls-2" d="m156.21,128.19l-.94,1.62-3.17-1-1.34,2.3,2.46,2.23-.92,1.58-9.11-8.77.89-1.53,12.12,3.57h.02Zm-5.7.1l-2.02-.64c-.79-.25-2.15-.74-2.59-.89.35.3,1.43,1.23,2.05,1.8l1.56,1.43.98-1.7h.01Z"/>
    <path class="cls-2" d="m111.92,121.34l.13,5.13c-5.28-2.13-10.01-4.04-15.31-6.17-.48-.13-1.35.18-1.5.73l-1.67,6.96-1.97-.53,2.15-6.85c.16-.6-.55-1.26-1.03-1.38-5.62-.79-10.68-1.51-16.33-2.3l2.65-4.38c.46-.79.37-1.77-.11-2.44l-12.28-17.7,3.71-.72c1.59-.14,1.42-1.1,1.45-3.3l.02-9.81,8.68,4.49c.88.38,1.64-.06,1.92-.57l2.33-4,5.02,10.44c.66,1.66,2.77,2.22,2.96-1.12l1.5-18.07,3.59,3.4c.99.98,2.13,1.41,3.1.37l8.79-9.64,2.79,12.75c.32,1.39,1.52,1.59,2.89,1.24l4.76-1.16-7.72,16.4c-1.51,2.99.6,3.56,2,2.45l9.57-6.54v4.63c0,.59.44,1.35,1.39,1.46l9.77.45-4.89,8.5c-1.08,1.92-1.7,2.67-.39,3.58l2.86,2.48-19.48,9.19c-.75.34-1.31,1.15-1.34,2.05h-.02Z"/>
    <path class="cls-1" d="m74.14,196.62c53.35,14.29,108.18-17.36,122.47-70.71,14.29-53.35-17.36-108.18-70.71-122.47C72.56-10.86,17.73,20.8,3.43,74.14c-14.29,53.35,17.36,108.18,70.71,122.47Z"/>
    <path class="cls-2" d="m50.89,43.91l-1.53,1.28-6.75-8.08,3.24-2.71c2.01-1.68,3.76-1.58,5.26.23,1.29,1.54,1.21,3.56-.69,5.15l-1.76,1.47,2.23,2.67Zm-3.28-3.94l1.59-1.32c1.13-.94,1.23-1.79.43-2.75-.82-.99-1.6-1.08-2.81-.08l-1.57,1.32,2.38,2.84h0Z"/>
    <path class="cls-2" d="m57.67,38.62l-1.68,1.08-5.73-8.83,3.71-2.4c2.2-1.43,3.86-1.18,4.99.57.89,1.39.78,2.76-.24,3.93l4.63,1.73.1.16-1.95,1.27-4.34-1.89-1.65,1.07,2.14,3.32h.01Zm-3.06-4.73l1.88-1.22c1.15-.75,1.47-1.56.85-2.53-.59-.9-1.3-1.01-2.58-.19l-1.92,1.24,1.74,2.69h.02Z"/>
    <path class="cls-2" d="m61.02,30.14c-1.42-3-.57-5.77,2.41-7.19,3-1.42,5.68-.32,7.1,2.67,1.43,3.01.66,5.81-2.38,7.25-3.06,1.46-5.7.28-7.12-2.74h-.01Zm7.7-3.66c-.95-1.99-2.51-2.91-4.54-1.94-2.04.97-2.32,2.75-1.38,4.76.98,2.06,2.53,3,4.57,2.02,2.06-.98,2.32-2.75,1.34-4.83h.01Z"/>
    <path class="cls-2" d="m78.75,24.17l-1.92-6.07,1.89-.6,1.96,6.21c.82,2.61-.2,4.49-2.93,5.36-2.76.88-4.77-.04-5.6-2.66l-1.96-6.21,1.91-.61,1.91,6.02c.48,1.5,1.37,2.34,3.22,1.76,1.78-.56,2-1.7,1.53-3.2h-.01Z"/>
    <path class="cls-2" d="m81.21,16.91l4.22-.72c3.58-.61,5.53.92,6.1,4.2.56,3.29-1.07,5.61-4.31,6.16l-4.22.72-1.78-10.37h-.01Zm5.56,8.04c2.44-.42,3.18-1.9,2.78-4.23-.42-2.44-1.62-3.28-4.1-2.86l-1.99.34,1.22,7.11,2.1-.36h-.01Z"/>
    <path class="cls-2" d="m96.08,25.46l-.08-10.53,7.26-.05v1.85s-5.25.04-5.25.04l.03,3.14,4.75-.03v1.73s-4.74.03-4.74.03l.03,3.81h-2Z"/>
    <path class="cls-2" d="m104.28,25.5l-2.06-.21,4.95-10.07,2.69.28,2.84,10.86-2.13-.22-.66-2.76-4.45-.45-1.18,2.57h0Zm2.42-5.25l-.58,1.24,3.44.35-.31-1.33c-.26-1.11-.5-2.33-.69-3.41l-.45-.05c-.42,1.02-.93,2.14-1.4,3.19h0Z"/>
    <path class="cls-2" d="m119.34,25.25c.61-1.09,1.38-2.34,1.85-3.03l2.7-3.94,2.98.75-2.56,10.21-1.94-.49,1.18-4.72c.3-1.19.72-2.69,1.06-3.88l-.29-.08c-.69,1.2-1.55,2.64-2.43,3.92l-2.43,3.43-1.89-.48-.46-4.22c-.15-1.64-.22-3.16-.26-4.51l-.27-.07c-.24,1.04-.55,2.29-.83,3.39-.05.17-.09.34-.14.51l-1.18,4.72-1.8-.45,2.56-10.21,3.18.8.47,4.8c.07.74.17,2.21.22,3.47l.27.07h.01Z"/>
    <path class="cls-2" d="m125.43,29.91l3.71-9.86,1.87.71-3.71,9.86-1.87-.71Z"/>
    <path class="cls-2" d="m131.36,30.37l4.31,2-.76,1.62-6.13-2.85,4.44-9.55,1.81.85-3.69,7.93h.01Z"/>
    <path class="cls-2" d="m136.51,34.97l1.74-3.01.06-7.89.1-.17,1.88,1.08-.43,5.95.24.14,4.95-3.34,1.84,1.06-.1.17-6.82,4.01-1.73,2.99-1.73-1h0Z"/>
    <path class="cls-2" d="m145.63,40.98l-1.55-1.26,6.67-8.13,3.41,2.8c2.04,1.66,2.29,3.31.97,4.92-1.04,1.27-2.38,1.58-3.81.98l-.23,4.93-.12.15-1.8-1.48.48-4.71-1.52-1.25-2.5,3.05Zm3.57-4.35l1.73,1.43c1.05.86,1.93.93,2.66.05.68-.82.57-1.56-.59-2.51l-1.77-1.45-2.03,2.48Z"/>
    <path class="cls-2" d="m151.31,45.75l7.6-7.27,5.25,5.49-1.25,1.2-3.87-4.04-1.88,1.8,3.5,3.66-1.24,1.19-3.5-3.66-1.98,1.89,3.86,4.03-1.25,1.2-3.86-4.03-1.38-1.45Z"/>
    <path class="cls-2" d="m161.09,48.33c2.73-2.03,5.57-1.7,7.46.84,1.62,2.18,1.41,4.39-.4,6.2l-1.44-1.32c1.18-1.27,1.4-2.52.4-3.87-1.28-1.72-3.1-1.54-4.83-.26-1.86,1.39-2.46,3.01-1.19,4.71,1.06,1.42,2.3,1.51,3.92.74l.85,1.73c-2.25,1.24-4.49.81-6.16-1.43-1.93-2.59-1.34-5.33,1.39-7.36v.02Z"/>
    <path class="cls-2" d="m163.13,60.29l8.99-5.49,1.04,1.71-8.98,5.49-1.04-1.71h0Z"/>
    <path class="cls-2" d="m165.89,65.03l-.9-1.78,9.4-4.73,1.9,3.78c1.18,2.33.68,4.01-1.42,5.07-1.78.9-3.74.36-4.85-1.84l-1.03-2.06-3.1,1.56Zm4.58-2.29l.93,1.85c.66,1.32,1.47,1.59,2.58,1.03,1.15-.57,1.42-1.32.72-2.72l-.92-1.83-3.3,1.66h0Z"/>
    <path class="cls-2" d="m168.8,70.99l9.88-3.62,2.61,7.13-1.63.6-1.93-5.26-2.43.89,1.74,4.76-1.61.59-1.74-4.76-2.57.94,1.92,5.24-1.63.6-1.92-5.24-.69-1.87h0Z"/>
    <path class="cls-2" d="m20.42,75.3l.55-1.92,10.12,2.89-1.21,4.25c-.72,2.53-2.13,3.43-4.14,2.85-1.59-.46-2.4-1.56-2.41-3.12l-4.62,1.74-.18-.05.64-2.25,4.51-1.43.54-1.89-3.79-1.08h0Zm5.41,1.54l-.62,2.15c-.37,1.32-.09,2.15,1.01,2.46,1.03.3,1.65-.1,2.06-1.55l.63-2.19-3.09-.88h0Z"/>
    <path class="cls-2" d="m17.97,84.98l10.42,1.45-1.04,7.52-1.72-.24.77-5.54-2.57-.36-.69,5.02-1.7-.24.69-5.02-2.72-.38-.76,5.52-1.72-.24.76-5.52.27-1.98h0Z"/>
    <path class="cls-2" d="m21.93,95.4c3.41,0,5.48,1.95,5.49,5.1,0,2.72-1.48,4.38-4,4.75l-.38-1.91c1.7-.32,2.63-1.2,2.62-2.87,0-2.14-1.58-3.08-3.73-3.08-2.31.01-3.77.96-3.77,3.08.01,1.77.96,2.57,2.72,2.92l-.34,1.9c-2.55-.34-4.1-2.02-4.1-4.82-.01-3.23,2.08-5.07,5.49-5.09v.02Z"/>
    <path class="cls-2" d="m17.03,108.6l10.41-1.55,1.12,7.51-1.71.25-.83-5.53-2.57.38.75,5.01-1.7.25-.75-5.01-2.71.4.82,5.51-1.71.25-.82-5.52-.3-1.97v.02Z"/>
    <path class="cls-2" d="m28.73,115.44l2.28,8.18-1.77.5-.87-3.12-8.37,2.33-.54-1.92,8.37-2.33-.87-3.12,1.77-.5h0Z"/>
    <path class="cls-2" d="m31.24,124.3l3.29,7.82-1.69.72-1.26-2.99-8,3.36-.77-1.84,8-3.36-1.26-2.99,1.69-.72Z"/>
    <path class="cls-2" d="m26.14,138.73l9.1-5.29,3.82,6.56-1.5.87-2.81-4.83-2.24,1.3,2.55,4.38-1.48.86-2.55-4.38-2.37,1.37,2.81,4.82-1.5.87-2.81-4.82-1.01-1.73h-.01Z"/>
    <path class="cls-2" d="m34.15,151.18l8.05-6.78,4.68,5.56-1.41,1.19-3.39-4.03-2.41,2.03,3.06,3.64-1.32,1.12-3.06-3.64-2.91,2.45-1.29-1.52h0Z"/>
    <path class="cls-2" d="m40.71,158.58l7.41-7.48,1.42,1.41-7.41,7.48-1.42-1.41Z"/>
    <path class="cls-2" d="m44.49,162.28l6.66-8.15,5.89,4.81-1.09,1.34-4.33-3.54-1.65,2.01,3.92,3.2-1.09,1.33-3.92-3.2-1.73,2.12,4.32,3.53-1.09,1.34-4.32-3.53-1.55-1.26h0Zm8.5-9.43l1.27-.83,2.43,4.1-.86.59-2.83-3.85h0Z"/>
    <path class="cls-2" d="m54.94,170.16l-1.71-1.04,5.46-9,3.77,2.29c2.25,1.37,2.74,2.96,1.66,4.74-.85,1.41-2.14,1.9-3.64,1.51l.46,4.92-.09.16-2-1.21-.19-4.73-1.68-1.02-2.04,3.38h0Zm2.91-4.81l1.92,1.17c1.17.71,2.05.65,2.64-.33.56-.92.34-1.62-.94-2.4l-1.95-1.18-1.67,2.74h0Z"/>
    <path class="cls-2" d="m63.56,175.06l4.17-9.66,6.98,3.01-.69,1.6-5.14-2.22-1.03,2.39,4.66,2.01-.68,1.58-4.66-2.01-1.09,2.51,5.12,2.21-.69,1.6-5.12-2.21-1.84-.79h0Z"/>
    <path class="cls-2" d="m80.81,178.37c.61-1.09,1.39-2.35,1.84-3.03l2.7-3.94,2.98.75-2.54,10.21-1.94-.48,1.17-4.73c.3-1.19.72-2.7,1.06-3.88l-.29-.08c-.67,1.21-1.55,2.64-2.42,3.92l-2.43,3.43-1.89-.47-.47-4.21c-.15-1.64-.23-3.17-.27-4.51l-.27-.07c-.24,1.04-.55,2.29-.83,3.39-.05.17-.09.34-.14.51l-1.18,4.74-1.8-.45,2.54-10.21,3.18.79.48,4.8c.07.74.17,2.21.22,3.48l.27.07.02-.03Z"/>
    <path class="cls-2" d="m89.83,182.82l.83-10.49,7.57.6-.13,1.73-5.58-.44-.21,2.59,5.05.4-.14,1.71-5.05-.4-.21,2.73,5.56.44-.13,1.74-5.56-.44-2-.16h0Z"/>
    <path class="cls-2" d="m104.53,178.46c-.67-1.03-1.49-2.62-2.1-3.83l-.31.04c.21,1.51.44,3.7.54,5.09l.24,3.61-1.88.13-.71-10.5,2.86-.19,2.58,3.95c.86,1.32,1.77,3.03,2.32,4.2l.31-.04c-.2-1.48-.42-3.41-.51-4.78l-.25-3.64,1.84-.13.71,10.5-2.62.18-3.01-4.6h-.01Z"/>
    <path class="cls-2" d="m110.94,172.15l8.31-1.76.39,1.8-3.17.67,1.8,8.5-1.96.42-1.8-8.5-3.17.67-.39-1.8h0Z"/>
    <path class="cls-2" d="m127.78,178.68l-3.9-9.77,6.75-2.7.68,1.71-4.89,1.95,1.16,2.92,4.42-1.77.65,1.61-4.42,1.77,1.41,3.54-1.86.75h0Z"/>
    <path class="cls-2" d="m137.37,174.59l-1.81,1-1.64-11.11,2.37-1.3,8.5,7.35-1.88,1.03-2.11-1.9-3.92,2.16.49,2.79h0Zm-.99-5.7l.23,1.36,3.03-1.66-1.01-.92c-.84-.76-1.74-1.63-2.5-2.41l-.4.22c.23,1.08.46,2.29.65,3.43h0Z"/>
    <path class="cls-2" d="m150.52,162.93c-.5-1.16-1.03-2.52-1.29-3.31l-1.49-4.54,2.4-1.92,6.56,8.23-1.57,1.25-3.04-3.82c-.77-.96-1.7-2.21-2.43-3.2l-.24.18c.54,1.27,1.16,2.83,1.64,4.3l1.25,4.01-1.53,1.22-3.63-2.2c-1.4-.88-2.65-1.74-3.75-2.54l-.22.18c.68.82,1.48,1.83,2.19,2.72l.32.41,3.04,3.82-1.45,1.16-6.56-8.23,2.57-2.05,4.12,2.53c.63.4,1.86,1.21,2.89,1.93l.22-.18v.02Z"/>
    <path class="cls-2" d="m159.21,158.71l-7.56-7.34,1.4-1.44,7.55,7.33-1.39,1.44Z"/>
    <path class="cls-2" d="m162.61,152.34l3-3.68,1.39,1.13-4.27,5.23-8.16-6.65,1.26-1.55,6.77,5.52h0Z"/>
    <path class="cls-2" d="m168.37,147.74l-8.71-5.93,1.13-1.65,8.7,5.93-1.13,1.65h0Z"/>
    <path class="cls-2" d="m171.82,142.5l-.98,1.82-7.4-8.44,1.29-2.38,11.12,1.56-1.02,1.88-2.81-.46-2.13,3.93,1.93,2.08h0Zm-3.92-4.25l.93,1.01,1.64-3.04-1.35-.23c-1.12-.19-2.34-.43-3.4-.66l-.22.4c.77.78,1.62,1.68,2.41,2.52h-.01Z"/>
    <path class="cls-2" d="m175.79,130.22l1.7-4.44,1.67.63-2.41,6.31-9.83-3.75.72-1.87,8.16,3.12Z"/>
    <path class="cls-2" d="m180.01,123.69l-10.21-2.54,1.83-7.37,1.69.42-1.35,5.43,2.52.62,1.22-4.92,1.67.42-1.23,4.92,2.66.66,1.35-5.42,1.68.42-1.35,5.42-.48,1.94h0Z"/>
    <path class="cls-2" d="m73.61,53.81l-1.39.94-2.78-4.09c-.43-.63-1.43-2.13-1.67-2.53.16.49.73,2.26,1,3.16l1.58,5.14-4.19-3.37c-.73-.58-2.18-1.76-2.57-2.1.28.39,1.3,1.85,1.73,2.49l2.78,4.09-1.34.9-6.9-10.16,1.49-1.02,4.17,3.33c.61.48,1.79,1.5,2.13,1.79-.16-.45-.68-1.97-.9-2.7l-1.53-5.07,1.48-1,6.9,10.16v.02Z"/>
    <path class="cls-2" d="m81.4,50.17l-1.7.79-2.01-2.65-2.42,1.11.72,3.24-1.66.77-2.39-12.41,1.61-.74,7.85,9.9Zm-4.71-3.2l-1.28-1.69c-.5-.66-1.33-1.84-1.6-2.22.11.45.46,1.83.64,2.66l.45,2.07,1.78-.82Z"/>
    <path class="cls-2" d="m87.23,42.03c1,3.51.46,6.31-2.04,7.02l-2.87.82-3.38-11.81,2.87-.83c2.61-.75,4.41,1.27,5.42,4.78h0Zm-1.71.5c-.59-2.07-1.65-4.11-3.3-3.63l-1.17.33,2.46,8.57,1.21-.35c1.58-.46,1.4-2.85.8-4.92Z"/>
    <path class="cls-2" d="m96.18,46.97l-5.94.81-1.66-12.16,5.72-.78.22,1.65-4.02.55.44,3.25,2.62-.35.22,1.63-2.62.35.54,3.98,4.24-.57.22,1.65h.01Z"/>
    <path class="cls-2" d="m103.18,47.02l-1.72-.08.54-12.27,1.72.08-.54,12.27Z"/>
    <path class="cls-2" d="m112,48.21l-1.39-.23-1.86-6.98c-.16-.56-.42-1.76-.52-2.13-.06.45-.27,1.84-.36,2.43l-1,6.06-1.66-.28,2.01-12.12,1.7.28,1.66,6.2c.16.56.42,1.76.52,2.13.06-.45.27-1.84.36-2.43l.88-5.33,1.66.28-2.01,12.12h0Z"/>
    <path class="cls-2" d="m124.36,49.47c-1.05,1.56-2.32,2.41-4.19,1.65-2.46-1-2.29-3.98-.98-7.21,1.34-3.3,3.37-5.48,5.78-4.51,1.91.77,2.22,2.24,1.83,3.98l-1.78-.25c.2-1.11.12-1.79-.76-2.14-1.38-.56-2.62,1.54-3.42,3.54-.85,2.09-1.29,4.45.09,5.01.77.31,1.33-.07,2.13-1.16l1.29,1.07h0Z"/>
    <path class="cls-2" d="m130.32,56.25l-1.62-.95,1.02-3.16-2.3-1.35-2.25,2.44-1.57-.93,8.83-9.05,1.53.9-3.65,12.11Zm-.07-5.7l.65-2.02c.26-.78.75-2.14.91-2.58-.31.35-1.25,1.42-1.81,2.05l-1.44,1.55,1.69.99h0Z"/>
    <path class="cls-2" d="m136.36,61.17l-1.09-.89,1.89-6.96c.15-.56.52-1.74.61-2.1-.27.36-1.16,1.46-1.53,1.92l-3.9,4.74-1.3-1.07,7.8-9.48,1.32,1.09-1.66,6.19c-.15.56-.52,1.74-.62,2.1.27-.36,1.16-1.46,1.53-1.92l3.43-4.18,1.3,1.07-7.79,9.49Z"/>
    <path class="cls-2" d="m142.21,67.59l-1.25-1.4,1.94-2.7-1.78-1.99-2.89,1.64-1.21-1.36,11.18-5.91,1.18,1.32-7.18,10.41h0Zm1.69-5.44l1.25-1.72c.49-.67,1.37-1.81,1.66-2.17-.4.24-1.62.97-2.35,1.39l-1.85,1.04,1.3,1.47h0Z"/>
    <path class="cls-2" d="m151.7,70.77c-3.06,1.99-5.9,2.29-7.32.11l-1.63-2.5,10.3-6.7,1.63,2.5c1.48,2.28.08,4.6-2.98,6.58h0Zm-.97-1.49c1.81-1.18,3.45-2.78,2.51-4.22l-.66-1.02-7.47,4.86.69,1.06c.9,1.38,3.13.5,4.93-.68h0Z"/>
    <path class="cls-2" d="m149.87,81.38l-.79-1.7,2.65-2.01-1.12-2.42-3.25.72-.77-1.66,12.42-2.4.74,1.61-9.9,7.86h.01Zm3.19-4.72l1.69-1.28c.66-.5,1.84-1.33,2.22-1.6-.45.11-1.83.46-2.66.64l-2.07.45.83,1.78h0Z"/>
    <path class="cls-2" d="m47.85,102.67l.05-4.14-3.36-.04-.04,2.65-1.65-.03.04-2.65-5.59-.08.03-1.72,12.27.17-.08,5.86-1.66-.02h0Z"/>
    <path class="cls-2" d="m38.26,111.75l-.24-1.86,3.13-1.12-.34-2.65-3.31-.29-.23-1.81,12.56,1.46.22,1.76-11.81,4.51h0Zm4.47-3.53l1.99-.71c.78-.28,2.16-.71,2.6-.86-.47-.03-1.89-.11-2.73-.18l-2.11-.19.24,1.95h0Z"/>
    <path class="cls-2" d="m44.66,120.78c-2.35.73-3.95-.25-4.55-2.19l-.96-3.11,11.74-3.62.91,2.95c.58,1.86.08,3.54-2.1,4.21-.96.29-2.13.18-2.85-.63-.05,1.1-.91,2-2.18,2.4h0Zm-.52-1.67c1.31-.4,1.6-1.34,1.3-2.37l-.4-1.31-3.79,1.17.45,1.48c.3.99,1.04,1.46,2.45,1.03Zm4.99-1.76c1.16-.35,1.36-1.11,1.09-2.01l-.43-1.38-3.18.98.42,1.34c.26.87.98,1.4,2.11,1.06Z"/>
    <path class="cls-2" d="m45.88,131.88l-.87-1.7,3.91-4.1-.66-1.26-4.76,2.44-.78-1.52,10.93-5.61,1.58,3.07c.81,1.6.7,3.48-1.47,4.6-1.57.81-2.82.58-3.76-.24l-4.13,4.33h0Zm7.03-5.63c1.13-.58,1.25-1.49.78-2.41l-.73-1.42-3.22,1.65.73,1.42c.5.98,1.3,1.34,2.44.76Z"/>
    <path class="cls-2" d="m48.93,136.42l-.98-1.41,10.1-6.97.98,1.41-10.1,6.97Z"/>
    <path class="cls-2" d="m60.63,140.82c-1.59,1.44-3.25,2.35-4.68,2.44l-.29,1.1-1.33-.43.23-.87c-.4-.15-.78-.38-1.11-.75-1.74-1.93-.43-4.61,2.21-7,2.64-2.39,5.43-3.43,7.18-1.51,1.74,1.93.44,4.61-2.2,7.01h0Zm-1.17-1.3c1.69-1.53,3.1-3.44,2.1-4.55-1-1.11-3.04.13-4.73,1.65-1.69,1.54-3.15,3.47-2.15,4.58.08.09.19.19.31.24l.4-1.48,1.31.43-.31,1.15c.99-.29,2.07-1.11,3.05-2.01h.01Z"/>
    <path class="cls-2" d="m66.88,149.07c-1.45,1.9-3.39,2.24-5.06.96-1.61-1.24-1.81-3.29-.46-5.06l5.31-6.94,1.37,1.05-5.27,6.88c-.62.81-.91,1.91.11,2.69,1.07.83,2.05.18,2.63-.57l5.28-6.9,1.35,1.03-5.24,6.86Z"/>
    <path class="cls-2" d="m73.82,157.11l-5.31-2.78,5.7-10.88,5.11,2.67-.77,1.48-3.59-1.88-1.52,2.9,2.34,1.23-.76,1.46-2.34-1.23-1.86,3.56,3.78,1.99-.77,1.47h0Zm7.3-14.09l-3.56,1.3-1.27-.66,2.73-1.73,2.1,1.1h0Z"/>
    <path class="cls-2" d="m88.69,161.84l-1.82-.46.08-3.32-2.59-.64-1.46,2.98-1.77-.44,5.9-11.19,1.72.43-.05,12.64Zm-1.68-5.44l.06-2.12c.02-.82.11-2.27.14-2.73-.2.42-.79,1.71-1.16,2.47l-.94,1.9,1.9.48h0Z"/>
    <path class="cls-2" d="m99.19,159.21c-.17,2.38-1.61,3.73-3.71,3.57-2.03-.15-3.32-1.76-3.15-3.98l.65-8.71,1.72.13-.64,8.64c-.07,1.01.29,2.1,1.56,2.19,1.35.1,1.81-.97,1.88-1.92l.64-8.65,1.7.12-.64,8.6h0Z"/>
    <path class="cls-2" d="m114.07,158.26c-.05,1.88-.67,3.28-2.65,3.64-2.6.47-4.06-2.13-4.69-5.56-.63-3.5-.09-6.44,2.47-6.9,2.02-.37,3.07.71,3.68,2.38l-1.63.74c-.42-1.05-.85-1.57-1.79-1.4-1.47.27-1.38,2.72-1,4.84.41,2.23,1.29,4.46,2.76,4.19.82-.14,1.1-.77,1.18-2.13l1.66.22h0Z"/>
    <path class="cls-2" d="m124.94,157.72l-1.76.63-1.77-2.8-2.51.9.44,3.29-1.72.62-1.33-12.57,1.66-.6,6.98,10.53h0Zm-4.43-3.59l-1.13-1.79c-.43-.7-1.16-1.95-1.4-2.34.07.46.3,1.87.42,2.7l.27,2.1,1.85-.66Z"/>
    <path class="cls-2" d="m134.4,152.6l-1.21.7-5.86-4.21c-.48-.34-1.44-1.09-1.75-1.32.24.38.96,1.59,1.26,2.11l3.07,5.32-1.46.84-6.14-10.63,1.48-.87,5.21,3.74c.48.34,1.44,1.09,1.75,1.32-.25-.39-.96-1.59-1.26-2.11l-2.7-4.68,1.46-.84,6.14,10.63h.01Z"/>
    <path class="cls-2" d="m143.5,145.39l-1.43,1.21-2.65-2.01-2.04,1.72,1.56,2.93-1.39,1.18-5.63-11.33,1.35-1.15,10.22,7.45Zm-5.39-1.83l-1.68-1.29c-.65-.51-1.77-1.42-2.14-1.71.23.4.93,1.65,1.33,2.38l.99,1.88,1.5-1.26h.01Z"/>
    <path class="cls-2" d="m145.82,133.38c2.8,2.34,3.93,4.97,2.27,6.95l-1.91,2.29-9.44-7.86,1.91-2.29c1.74-2.09,4.37-1.43,7.17.91Zm-1.14,1.36c-1.66-1.39-3.68-2.47-4.78-1.15l-.78.93,6.85,5.71.81-.97c1.05-1.27-.45-3.13-2.1-4.52Z"/>
    <path class="cls-2" d="m156.21,128.19l-.94,1.62-3.17-1-1.34,2.3,2.46,2.23-.92,1.58-9.11-8.77.89-1.53,12.12,3.57h.02Zm-5.7.1l-2.02-.64c-.79-.25-2.15-.74-2.59-.89.35.3,1.43,1.23,2.05,1.8l1.56,1.43.98-1.7h.01Z"/>
    <path class="cls-2" d="m111.92,121.34l.13,5.13c-5.28-2.13-10.01-4.04-15.31-6.17-.48-.13-1.35.18-1.5.73l-1.67,6.96-1.97-.53,2.15-6.85c.16-.6-.55-1.26-1.03-1.38-5.62-.79-10.68-1.51-16.33-2.3l2.65-4.38c.46-.79.37-1.77-.11-2.44l-12.28-17.7,3.71-.72c1.59-.14,1.42-1.1,1.45-3.3l.02-9.81,8.68,4.49c.88.38,1.64-.06,1.92-.57l2.33-4,5.02,10.44c.66,1.66,2.77,2.22,2.96-1.12l1.5-18.07,3.59,3.4c.99.98,2.13,1.41,3.1.37l8.79-9.64,2.79,12.75c.32,1.39,1.52,1.59,2.89,1.24l4.76-1.16-7.72,16.4c-1.51,2.99.6,3.56,2,2.45l9.57-6.54v4.63c0,.59.44,1.35,1.39,1.46l9.77.45-4.89,8.5c-1.08,1.92-1.7,2.67-.39,3.58l2.86,2.48-19.48,9.19c-.75.34-1.31,1.15-1.34,2.05h-.02Z"/>
    <path class="cls-1" d="m74.14,196.62c53.35,14.29,108.18-17.36,122.47-70.71,14.29-53.35-17.36-108.18-70.71-122.47C72.56-10.86,17.73,20.8,3.43,74.14c-14.29,53.35,17.36,108.18,70.71,122.47Z"/>
    <path class="cls-2" d="m50.89,43.91l-1.53,1.28-6.75-8.08,3.24-2.71c2.01-1.68,3.76-1.58,5.26.23,1.29,1.54,1.21,3.56-.69,5.15l-1.76,1.47,2.23,2.67Zm-3.28-3.94l1.59-1.32c1.13-.94,1.23-1.79.43-2.75-.82-.99-1.6-1.08-2.81-.08l-1.57,1.32,2.38,2.84h0Z"/>
    <path class="cls-2" d="m57.67,38.62l-1.68,1.08-5.73-8.83,3.71-2.4c2.2-1.43,3.86-1.18,4.99.57.89,1.39.78,2.76-.24,3.93l4.63,1.73.1.16-1.95,1.27-4.34-1.89-1.65,1.07,2.14,3.32h.01Zm-3.06-4.73l1.88-1.22c1.15-.75,1.47-1.56.85-2.53-.59-.9-1.3-1.01-2.58-.19l-1.92,1.24,1.74,2.69h.02Z"/>
    <path class="cls-2" d="m61.02,30.14c-1.42-3-.57-5.77,2.41-7.19,3-1.42,5.68-.32,7.1,2.67,1.43,3.01.66,5.81-2.38,7.25-3.06,1.46-5.7.28-7.12-2.74h-.01Zm7.7-3.66c-.95-1.99-2.51-2.91-4.54-1.94-2.04.97-2.32,2.75-1.38,4.76.98,2.06,2.53,3,4.57,2.02,2.06-.98,2.32-2.75,1.34-4.83h.01Z"/>
    <path class="cls-2" d="m78.75,24.17l-1.92-6.07,1.89-.6,1.96,6.21c.82,2.61-.2,4.49-2.93,5.36-2.76.88-4.77-.04-5.6-2.66l-1.96-6.21,1.91-.61,1.91,6.02c.48,1.5,1.37,2.34,3.22,1.76,1.78-.56,2-1.7,1.53-3.2h-.01Z"/>
    <path class="cls-2" d="m81.21,16.91l4.22-.72c3.58-.61,5.53.92,6.1,4.2.56,3.29-1.07,5.61-4.31,6.16l-4.22.72-1.78-10.37h-.01Zm5.56,8.04c2.44-.42,3.18-1.9,2.78-4.23-.42-2.44-1.62-3.28-4.1-2.86l-1.99.34,1.22,7.11,2.1-.36h-.01Z"/>
    <path class="cls-2" d="m96.08,25.46l-.08-10.53,7.26-.05v1.85s-5.25.04-5.25.04l.03,3.14,4.75-.03v1.73s-4.74.03-4.74.03l.03,3.81h-2Z"/>
    <path class="cls-2" d="m104.28,25.5l-2.06-.21,4.95-10.07,2.69.28,2.84,10.86-2.13-.22-.66-2.76-4.45-.45-1.18,2.57h0Zm2.42-5.25l-.58,1.24,3.44.35-.31-1.33c-.26-1.11-.5-2.33-.69-3.41l-.45-.05c-.42,1.02-.93,2.14-1.4,3.19h0Z"/>
    <path class="cls-2" d="m119.34,25.25c.61-1.09,1.38-2.34,1.85-3.03l2.7-3.94,2.98.75-2.56,10.21-1.94-.49,1.18-4.72c.3-1.19.72-2.69,1.06-3.88l-.29-.08c-.69,1.2-1.55,2.64-2.43,3.92l-2.43,3.43-1.89-.48-.46-4.22c-.15-1.64-.22-3.16-.26-4.51l-.27-.07c-.24,1.04-.55,2.29-.83,3.39-.05.17-.09.34-.14.51l-1.18,4.72-1.8-.45,2.56-10.21,3.18.8.47,4.8c.07.74.17,2.21.22,3.47l.27.07h.01Z"/>
    <path class="cls-2" d="m125.43,29.91l3.71-9.86,1.87.71-3.71,9.86-1.87-.71Z"/>
    <path class="cls-2" d="m131.36,30.37l4.31,2-.76,1.62-6.13-2.85,4.44-9.55,1.81.85-3.69,7.93h.01Z"/>
    <path class="cls-2" d="m136.51,34.97l1.74-3.01.06-7.89.1-.17,1.88,1.08-.43,5.95.24.14,4.95-3.34,1.84,1.06-.1.17-6.82,4.01-1.73,2.99-1.73-1h0Z"/>
    <path class="cls-2" d="m145.63,40.98l-1.55-1.26,6.67-8.13,3.41,2.8c2.04,1.66,2.29,3.31.97,4.92-1.04,1.27-2.38,1.58-3.81.98l-.23,4.93-.12.15-1.8-1.48.48-4.71-1.52-1.25-2.5,3.05Zm3.57-4.35l1.73,1.43c1.05.86,1.93.93,2.66.05.68-.82.57-1.56-.59-2.51l-1.77-1.45-2.03,2.48Z"/>
    <path class="cls-2" d="m151.31,45.75l7.6-7.27,5.25,5.49-1.25,1.2-3.87-4.04-1.88,1.8,3.5,3.66-1.24,1.19-3.5-3.66-1.98,1.89,3.86,4.03-1.25,1.2-3.86-4.03-1.38-1.45Z"/>
    <path class="cls-2" d="m161.09,48.33c2.73-2.03,5.57-1.7,7.46.84,1.62,2.18,1.41,4.39-.4,6.2l-1.44-1.32c1.18-1.27,1.4-2.52.4-3.87-1.28-1.72-3.1-1.54-4.83-.26-1.86,1.39-2.46,3.01-1.19,4.71,1.06,1.42,2.3,1.51,3.92.74l.85,1.73c-2.25,1.24-4.49.81-6.16-1.43-1.93-2.59-1.34-5.33,1.39-7.36v.02Z"/>
    <path class="cls-2" d="m163.13,60.29l8.99-5.49,1.04,1.71-8.98,5.49-1.04-1.71h0Z"/>
    <path class="cls-2" d="m165.89,65.03l-.9-1.78,9.4-4.73,1.9,3.78c1.18,2.33.68,4.01-1.42,5.07-1.78.9-3.74.36-4.85-1.84l-1.03-2.06-3.1,1.56Zm4.58-2.29l.93,1.85c.66,1.32,1.47,1.59,2.58,1.03,1.15-.57,1.42-1.32.72-2.72l-.92-1.83-3.3,1.66h0Z"/>
    <path class="cls-2" d="m168.8,70.99l9.88-3.62,2.61,7.13-1.63.6-1.93-5.26-2.43.89,1.74,4.76-1.61.59-1.74-4.76-2.57.94,1.92,5.24-1.63.6-1.92-5.24-.69-1.87h0Z"/>
    <path class="cls-2" d="m20.42,75.3l.55-1.92,10.12,2.89-1.21,4.25c-.72,2.53-2.13,3.43-4.14,2.85-1.59-.46-2.4-1.56-2.41-3.12l-4.62,1.74-.18-.05.64-2.25,4.51-1.43.54-1.89-3.79-1.08h0Zm5.41,1.54l-.62,2.15c-.37,1.32-.09,2.15,1.01,2.46,1.03.3,1.65-.1,2.06-1.55l.63-2.19-3.09-.88h0Z"/>
    <path class="cls-2" d="m17.97,84.98l10.42,1.45-1.04,7.52-1.72-.24.77-5.54-2.57-.36-.69,5.02-1.7-.24.69-5.02-2.72-.38-.76,5.52-1.72-.24.76-5.52.27-1.98h0Z"/>
    <path class="cls-2" d="m21.93,95.4c3.41,0,5.48,1.95,5.49,5.1,0,2.72-1.48,4.38-4,4.75l-.38-1.91c1.7-.32,2.63-1.2,2.62-2.87,0-2.14-1.58-3.08-3.73-3.08-2.31.01-3.77.96-3.77,3.08.01,1.77.96,2.57,2.72,2.92l-.34,1.9c-2.55-.34-4.1-2.02-4.1-4.82-.01-3.23,2.08-5.07,5.49-5.09v.02Z"/>
    <path class="cls-2" d="m17.03,108.6l10.41-1.55,1.12,7.51-1.71.25-.83-5.53-2.57.38.75,5.01-1.7.25-.75-5.01-2.71.4.82,5.51-1.71.25-.82-5.52-.3-1.97v.02Z"/>
    <path class="cls-2" d="m28.73,115.44l2.28,8.18-1.77.5-.87-3.12-8.37,2.33-.54-1.92,8.37-2.33-.87-3.12,1.77-.5h0Z"/>
    <path class="cls-2" d="m31.24,124.3l3.29,7.82-1.69.72-1.26-2.99-8,3.36-.77-1.84,8-3.36-1.26-2.99,1.69-.72Z"/>
    <path class="cls-2" d="m26.14,138.73l9.1-5.29,3.82,6.56-1.5.87-2.81-4.83-2.24,1.3,2.55,4.38-1.48.86-2.55-4.38-2.37,1.37,2.81,4.82-1.5.87-2.81-4.82-1.01-1.73h-.01Z"/>
    <path class="cls-2" d="m34.15,151.18l8.05-6.78,4.68,5.56-1.41,1.19-3.39-4.03-2.41,2.03,3.06,3.64-1.32,1.12-3.06-3.64-2.91,2.45-1.29-1.52h0Z"/>
    <path class="cls-2" d="m40.71,158.58l7.41-7.48,1.42,1.41-7.41,7.48-1.42-1.41Z"/>
    <path class="cls-2" d="m44.49,162.28l6.66-8.15,5.89,4.81-1.09,1.34-4.33-3.54-1.65,2.01,3.92,3.2-1.09,1.33-3.92-3.2-1.73,2.12,4.32,3.53-1.09,1.34-4.32-3.53-1.55-1.26h0Zm8.5-9.43l1.27-.83,2.43,4.1-.86.59-2.83-3.85h0Z"/>
    <path class="cls-2" d="m54.94,170.16l-1.71-1.04,5.46-9,3.77,2.29c2.25,1.37,2.74,2.96,1.66,4.74-.85,1.41-2.14,1.9-3.64,1.51l.46,4.92-.09.16-2-1.21-.19-4.73-1.68-1.02-2.04,3.38h0Zm2.91-4.81l1.92,1.17c1.17.71,2.05.65,2.64-.33.56-.92.34-1.62-.94-2.4l-1.95-1.18-1.67,2.74h0Z"/>
    <path class="cls-2" d="m63.56,175.06l4.17-9.66,6.98,3.01-.69,1.6-5.14-2.22-1.03,2.39,4.66,2.01-.68,1.58-4.66-2.01-1.09,2.51,5.12,2.21-.69,1.6-5.12-2.21-1.84-.79h0Z"/>
    <path class="cls-2" d="m80.81,178.37c.61-1.09,1.39-2.35,1.84-3.03l2.7-3.94,2.98.75-2.54,10.21-1.94-.48,1.17-4.73c.3-1.19.72-2.7,1.06-3.88l-.29-.08c-.67,1.21-1.55,2.64-2.42,3.92l-2.43,3.43-1.89-.47-.47-4.21c-.15-1.64-.23-3.17-.27-4.51l-.27-.07c-.24,1.04-.55,2.29-.83,3.39-.05.17-.09.34-.14.51l-1.18,4.74-1.8-.45,2.54-10.21,3.18.79.48,4.8c.07.74.17,2.21.22,3.48l.27.07.02-.03Z"/>
    <path class="cls-2" d="m89.83,182.82l.83-10.49,7.57.6-.13,1.73-5.58-.44-.21,2.59,5.05.4-.14,1.71-5.05-.4-.21,2.73,5.56.44-.13,1.74-5.56-.44-2-.16h0Z"/>
    <path class="cls-2" d="m104.53,178.46c-.67-1.03-1.49-2.62-2.1-3.83l-.31.04c.21,1.51.44,3.7.54,5.09l.24,3.61-1.88.13-.71-10.5,2.86-.19,2.58,3.95c.86,1.32,1.77,3.03,2.32,4.2l.31-.04c-.2-1.48-.42-3.41-.51-4.78l-.25-3.64,1.84-.13.71,10.5-2.62.18-3.01-4.6h-.01Z"/>
    <path class="cls-2" d="m110.94,172.15l8.31-1.76.39,1.8-3.17.67,1.8,8.5-1.96.42-1.8-8.5-3.17.67-.39-1.8h0Z"/>
    <path class="cls-2" d="m127.78,178.68l-3.9-9.77,6.75-2.7.68,1.71-4.89,1.95,1.16,2.92,4.42-1.77.65,1.61-4.42,1.77,1.41,3.54-1.86.75h0Z"/>
    <path class="cls-2" d="m137.37,174.59l-1.81,1-1.64-11.11,2.37-1.3,8.5,7.35-1.88,1.03-2.11-1.9-3.92,2.16.49,2.79h0Zm-.99-5.7l.23,1.36,3.03-1.66-1.01-.92c-.84-.76-1.74-1.63-2.5-2.41l-.4.22c.23,1.08.46,2.29.65,3.43h0Z"/>
    <path class="cls-2" d="m150.52,162.93c-.5-1.16-1.03-2.52-1.29-3.31l-1.49-4.54,2.4-1.92,6.56,8.23-1.57,1.25-3.04-3.82c-.77-.96-1.7-2.21-2.43-3.2l-.24.18c.54,1.27,1.16,2.83,1.64,4.3l1.25,4.01-1.53,1.22-3.63-2.2c-1.4-.88-2.65-1.74-3.75-2.54l-.22.18c.68.82,1.48,1.83,2.19,2.72l.32.41,3.04,3.82-1.45,1.16-6.56-8.23,2.57-2.05,4.12,2.53c.63.4,1.86,1.21,2.89,1.93l.22-.18v.02Z"/>
    <path class="cls-2" d="m159.21,158.71l-7.56-7.34,1.4-1.44,7.55,7.33-1.39,1.44Z"/>
    <path class="cls-2" d="m162.61,152.34l3-3.68,1.39,1.13-4.27,5.23-8.16-6.65,1.26-1.55,6.77,5.52h0Z"/>
    <path class="cls-2" d="m168.37,147.74l-8.71-5.93,1.13-1.65,8.7,5.93-1.13,1.65h0Z"/>
    <path class="cls-2" d="m171.82,142.5l-.98,1.82-7.4-8.44,1.29-2.38,11.12,1.56-1.02,1.88-2.81-.46-2.13,3.93,1.93,2.08h0Zm-3.92-4.25l.93,1.01,1.64-3.04-1.35-.23c-1.12-.19-2.34-.43-3.4-.66l-.22.4c.77.78,1.62,1.68,2.41,2.52h-.01Z"/>
    <path class="cls-2" d="m175.79,130.22l1.7-4.44,1.67.63-2.41,6.31-9.83-3.75.72-1.87,8.16,3.12Z"/>
    <path class="cls-2" d="m180.01,123.69l-10.21-2.54,1.83-7.37,1.69.42-1.35,5.43,2.52.62,1.22-4.92,1.67.42-1.23,4.92,2.66.66,1.35-5.42,1.68.42-1.35,5.42-.48,1.94h0Z"/>
    <path class="cls-2" d="m73.61,53.81l-1.39.94-2.78-4.09c-.43-.63-1.43-2.13-1.67-2.53.16.49.73,2.26,1,3.16l1.58,5.14-4.19-3.37c-.73-.58-2.18-1.76-2.57-2.1.28.39,1.3,1.85,1.73,2.49l2.78,4.09-1.34.9-6.9-10.16,1.49-1.02,4.17,3.33c.61.48,1.79,1.5,2.13,1.79-.16-.45-.68-1.97-.9-2.7l-1.53-5.07,1.48-1,6.9,10.16v.02Z"/>
    <path class="cls-2" d="m81.4,50.17l-1.7.79-2.01-2.65-2.42,1.11.72,3.24-1.66.77-2.39-12.41,1.61-.74,7.85,9.9Zm-4.71-3.2l-1.28-1.69c-.5-.66-1.33-1.84-1.6-2.22.11.45.46,1.83.64,2.66l.45,2.07,1.78-.82Z"/>
    <path class="cls-2" d="m87.23,42.03c1,3.51.46,6.31-2.04,7.02l-2.87.82-3.38-11.81,2.87-.83c2.61-.75,4.41,1.27,5.42,4.78h0Zm-1.71.5c-.59-2.07-1.65-4.11-3.3-3.63l-1.17.33,2.46,8.57,1.21-.35c1.58-.46,1.4-2.85.8-4.92Z"/>
    <path class="cls-2" d="m96.18,46.97l-5.94.81-1.66-12.16,5.72-.78.22,1.65-4.02.55.44,3.25,2.62-.35.22,1.63-2.62.35.54,3.98,4.24-.57.22,1.65h.01Z"/>
    <path class="cls-2" d="m103.18,47.02l-1.72-.08.54-12.27,1.72.08-.54,12.27Z"/>
    <path class="cls-2" d="m112,48.21l-1.39-.23-1.86-6.98c-.16-.56-.42-1.76-.52-2.13-.06.45-.27,1.84-.36,2.43l-1,6.06-1.66-.28,2.01-12.12,1.7.28,1.66,6.2c.16.56.42,1.76.52,2.13.06-.45.27-1.84.36-2.43l.88-5.33,1.66.28-2.01,12.12h0Z"/>
    <path class="cls-2" d="m124.36,49.47c-1.05,1.56-2.32,2.41-4.19,1.65-2.46-1-2.29-3.98-.98-7.21,1.34-3.3,3.37-5.48,5.78-4.51,1.91.77,2.22,2.24,1.83,3.98l-1.78-.25c.2-1.11.12-1.79-.76-2.14-1.38-.56-2.62,1.54-3.42,3.54-.85,2.09-1.29,4.45.09,5.01.77.31,1.33-.07,2.13-1.16l1.29,1.07h0Z"/>
    <path class="cls-2" d="m130.32,56.25l-1.62-.95,1.02-3.16-2.3-1.35-2.25,2.44-1.57-.93,8.83-9.05,1.53.9-3.65,12.11Zm-.07-5.7l.65-2.02c.26-.78.75-2.14.91-2.58-.31.35-1.25,1.42-1.81,2.05l-1.44,1.55,1.69.99h0Z"/>
    <path class="cls-2" d="m136.36,61.17l-1.09-.89,1.89-6.96c.15-.56.52-1.74.61-2.1-.27.36-1.16,1.46-1.53,1.92l-3.9,4.74-1.3-1.07,7.8-9.48,1.32,1.09-1.66,6.19c-.15.56-.52,1.74-.62,2.1.27-.36,1.16-1.46,1.53-1.92l3.43-4.18,1.3,1.07-7.79,9.49Z"/>
    <path class="cls-2" d="m142.21,67.59l-1.25-1.4,1.94-2.7-1.78-1.99-2.89,1.64-1.21-1.36,11.18-5.91,1.18,1.32-7.18,10.41h0Zm1.69-5.44l1.25-1.72c.49-.67,1.37-1.81,1.66-2.17-.4.24-1.62.97-2.35,1.39l-1.85,1.04,1.3,1.47h0Z"/>
    <path class="cls-2" d="m151.7,70.77c-3.06,1.99-5.9,2.29-7.32.11l-1.63-2.5,10.3-6.7,1.63,2.5c1.48,2.28.08,4.6-2.98,6.58h0Zm-.97-1.49c1.81-1.18,3.45-2.78,2.51-4.22l-.66-1.02-7.47,4.86.69,1.06c.9,1.38,3.13.5,4.93-.68h0Z"/>
    <path class="cls-2" d="m149.87,81.38l-.79-1.7,2.65-2.01-1.12-2.42-3.25.72-.77-1.66,12.42-2.4.74,1.61-9.9,7.86h.01Zm3.19-4.72l1.69-1.28c.66-.5,1.84-1.33,2.22-1.6-.45.11-1.83.46-2.66.64l-2.07.45.83,1.78h0Z"/>
    <path class="cls-2" d="m47.85,102.67l.05-4.14-3.36-.04-.04,2.65-1.65-.03.04-2.65-5.59-.08.03-1.72,12.27.17-.08,5.86-1.66-.02h0Z"/>
    <path class="cls-2" d="m38.26,111.75l-.24-1.86,3.13-1.12-.34-2.65-3.31-.29-.23-1.81,12.56,1.46.22,1.76-11.81,4.51h0Zm4.47-3.53l1.99-.71c.78-.28,2.16-.71,2.6-.86-.47-.03-1.89-.11-2.73-.18l-2.11-.19.24,1.95h0Z"/>
    <path class="cls-2" d="m44.66,120.78c-2.35.73-3.95-.25-4.55-2.19l-.96-3.11,11.74-3.62.91,2.95c.58,1.86.08,3.54-2.1,4.21-.96.29-2.13.18-2.85-.63-.05,1.1-.91,2-2.18,2.4h0Zm-.52-1.67c1.31-.4,1.6-1.34,1.3-2.37l-.4-1.31-3.79,1.17.45,1.48c.3.99,1.04,1.46,2.45,1.03Zm4.99-1.76c1.16-.35,1.36-1.11,1.09-2.01l-.43-1.38-3.18.98.42,1.34c.26.87.98,1.4,2.11,1.06Z"/>
    <path class="cls-2" d="m45.88,131.88l-.87-1.7,3.91-4.1-.66-1.26-4.76,2.44-.78-1.52,10.93-5.61,1.58,3.07c.81,1.6.7,3.48-1.47,4.6-1.57.81-2.82.58-3.76-.24l-4.13,4.33h0Zm7.03-5.63c1.13-.58,1.25-1.49.78-2.41l-.73-1.42-3.22,1.65.73,1.42c.5.98,1.3,1.34,2.44.76Z"/>
    <path class="cls-2" d="m48.93,136.42l-.98-1.41,10.1-6.97.98,1.41-10.1,6.97Z"/>
    <path class="cls-2" d="m60.63,140.82c-1.59,1.44-3.25,2.35-4.68,2.44l-.29,1.1-1.33-.43.23-.87c-.4-.15-.78-.38-1.11-.75-1.74-1.93-.43-4.61,2.21-7,2.64-2.39,5.43-3.43,7.18-1.51,1.74,1.93.44,4.61-2.2,7.01h0Zm-1.17-1.3c1.69-1.53,3.1-3.44,2.1-4.55-1-1.11-3.04.13-4.73,1.65-1.69,1.54-3.15,3.47-2.15,4.58.08.09.19.19.31.24l.4-1.48,1.31.43-.31,1.15c.99-.29,2.07-1.11,3.05-2.01h.01Z"/>
    <path class="cls-2" d="m66.88,149.07c-1.45,1.9-3.39,2.24-5.06.96-1.61-1.24-1.81-3.29-.46-5.06l5.31-6.94,1.37,1.05-5.27,6.88c-.62.81-.91,1.91.11,2.69,1.07.83,2.05.18,2.63-.57l5.28-6.9,1.35,1.03-5.24,6.86Z"/>
    <path class="cls-2" d="m73.82,157.11l-5.31-2.78,5.7-10.88,5.11,2.67-.77,1.48-3.59-1.88-1.52,2.9,2.34,1.23-.76,1.46-2.34-1.23-1.86,3.56,3.78,1.99-.77,1.47h0Zm7.3-14.09l-3.56,1.3-1.27-.66,2.73-1.73,2.1,1.1h0Z"/>
    <path class="cls-2" d="m88.69,161.84l-1.82-.46.08-3.32-2.59-.64-1.46,2.98-1.77-.44,5.9-11.19,1.72.43-.05,12.64Zm-1.68-5.44l.06-2.12c.02-.82.11-2.27.14-2.73-.2.42-.79,1.71-1.16,2.47l-.94,1.9,1.9.48h0Z"/>
    <path class="cls-2" d="m99.19,159.21c-.17,2.38-1.61,3.73-3.71,3.57-2.03-.15-3.32-1.76-3.15-3.98l.65-8.71,1.72.13-.64,8.64c-.07,1.01.29,2.1,1.56,2.19,1.35.1,1.81-.97,1.88-1.92l.64-8.65,1.7.12-.64,8.6h0Z"/>
    <path class="cls-2" d="m114.07,158.26c-.05,1.88-.67,3.28-2.65,3.64-2.6.47-4.06-2.13-4.69-5.56-.63-3.5-.09-6.44,2.47-6.9,2.02-.37,3.07.71,3.68,2.38l-1.63.74c-.42-1.05-.85-1.57-1.79-1.4-1.47.27-1.38,2.72-1,4.84.41,2.23,1.29,4.46,2.76,4.19.82-.14,1.1-.77,1.18-2.13l1.66.22h0Z"/>
    <path class="cls-2" d="m124.94,157.72l-1.76.63-1.77-2.8-2.51.9.44,3.29-1.72.62-1.33-12.57,1.66-.6,6.98,10.53h0Zm-4.43-3.59l-1.13-1.79c-.43-.7-1.16-1.95-1.4-2.34.07.46.3,1.87.42,2.7l.27,2.1,1.85-.66Z"/>
    <path class="cls-2" d="m134.4,152.6l-1.21.7-5.86-4.21c-.48-.34-1.44-1.09-1.75-1.32.24.38.96,1.59,1.26,2.11l3.07,5.32-1.46.84-6.14-10.63,1.48-.87,5.21,3.74c.48.34,1.44,1.09,1.75,1.32-.25-.39-.96-1.59-1.26-2.11l-2.7-4.68,1.46-.84,6.14,10.63h.01Z"/>
    <path class="cls-2" d="m143.5,145.39l-1.43,1.21-2.65-2.01-2.04,1.72,1.56,2.93-1.39,1.18-5.63-11.33,1.35-1.15,10.22,7.45Zm-5.39-1.83l-1.68-1.29c-.65-.51-1.77-1.42-2.14-1.71.23.4.93,1.65,1.33,2.38l.99,1.88,1.5-1.26h.01Z"/>
    <path class="cls-2" d="m145.82,133.38c2.8,2.34,3.93,4.97,2.27,6.95l-1.91,2.29-9.44-7.86,1.91-2.29c1.74-2.09,4.37-1.43,7.17.91Zm-1.14,1.36c-1.66-1.39-3.68-2.47-4.78-1.15l-.78.93,6.85,5.71.81-.97c1.05-1.27-.45-3.13-2.1-4.52Z"/>
    <path class="cls-2" d="m156.21,128.19l-.94,1.62-3.17-1-1.34,2.3,2.46,2.23-.92,1.58-9.11-8.77.89-1.53,12.12,3.57h.02Zm-5.7.1l-2.02-.64c-.79-.25-2.15-.74-2.59-.89.35.3,1.43,1.23,2.05,1.8l1.56,1.43.98-1.7h.01Z"/>
    <path class="cls-2" d="m111.92,121.34l.13,5.13c-5.28-2.13-10.01-4.04-15.31-6.17-.48-.13-1.35.18-1.5.73l-1.67,6.96-1.97-.53,2.15-6.85c.16-.6-.55-1.26-1.03-1.38-5.62-.79-10.68-1.51-16.33-2.3l2.65-4.38c.46-.79.37-1.77-.11-2.44l-12.28-17.7,3.71-.72c1.59-.14,1.42-1.1,1.45-3.3l.02-9.81,8.68,4.49c.88.38,1.64-.06,1.92-.57l2.33-4,5.02,10.44c.66,1.66,2.77,2.22,2.96-1.12l1.5-18.07,3.59,3.4c.99.98,2.13,1.41,3.1.37l8.79-9.64,2.79,12.75c.32,1.39,1.52,1.59,2.89,1.24l4.76-1.16-7.72,16.4c-1.51,2.99.6,3.56,2,2.45l9.57-6.54v4.63c0,.59.44,1.35,1.39,1.46l9.77.45-4.89,8.5c-1.08,1.92-1.7,2.67-.39,3.58l2.86,2.48-19.48,9.19c-.75.34-1.31,1.15-1.34,2.05h-.02Z"/>
  </g>
</svg>