<?xml version="1.0" encoding="UTF-8"?>
<svg id="Layer_2" data-name="Layer 2" xmlns="http://www.w3.org/2000/svg" viewBox="0 0 199.73 199.25">
  <defs>
    <style>
      .cls-1 {
        fill: #ffc629;
      }

      .cls-2 {
        fill: #231f20;
      }
    </style>
  </defs>
  <g id="Layer_1-2" data-name="Layer 1">
    <path class="cls-1" d="m199.73,120.68l-54.34,3.66,27.92,46.77-47.69-26.27-1.8,54.42-25.92-47.91-30.93,44.82,4.1-54.3-50.25,20.98,32.8-43.47L0,109.84l51.09-18.84L11.14,54.03l53.17,11.78-13.61-52.72,38.36,38.65L106.12,0l11.35,53.25,42.32-34.28-19.24,50.96,54.13-5.97-43.73,32.46,48.77,24.26Z"/>
    <path class="cls-2" d="m83.03,84.86c1.21,1.58,1.28,3.43-.19,4.56-1.45,1.11-3.07.73-4.81-1.14l1.28-1.36c1.16,1.19,1.82,1.33,2.33.94.54-.41.54-.98-.02-1.7-.85-1.11-1.69-1.43-3.95-1.97-1.84-.45-3.47-1.07-4.51-2.42-1.14-1.48-1.29-3.23.21-4.39,1.53-1.17,3.02-.52,4.43.86l-1.2,1.43c-.93-.87-1.55-1.14-2.03-.77-.47.36-.48.9.1,1.66.64.83,1.39,1.15,3.19,1.58,2.26.54,4.02,1.22,5.17,2.71h0Z"/>
    <path class="cls-2" d="m89.02,85.01l-1.64.98-7.57-12.76,1.64-.98,7.58,12.75h0Z"/>
    <path class="cls-2" d="m97.57,80.97l-1.25.54-3.79-4.37c-.87-1.01-2.31-2.75-3.07-3.71.46,1.07,1.35,3.04,1.78,4.03l2.26,5.26-1.66.71-5.85-13.63,1.66-.71,3.31,3.8c.59.67,1.77,2.08,2.51,3.05-.42-.98-1.2-2.74-1.51-3.46l-1.9-4.42,1.66-.71,5.85,13.64v-.03Z"/>
    <path class="cls-2" d="m105.09,74.8c.32,2.4.22,4.21-1.94,4.76-2.42.62-3.72-1.66-4.98-6.57-1.27-4.93-1.31-7.6,1.19-8.26,1.99-.51,3.24,1,3.95,3.33l-1.78.72c-.53-1.6-1.03-2.38-1.71-2.21-.86.22-.98,1.22.21,5.83,1.18,4.54,1.81,5.5,2.74,5.27.61-.16.7-.86.45-2.68l1.86-.22h0Z"/>
    <path class="cls-2" d="m113.95,77.6l-5.4.58-1.6-14.75,5.14-.56.21,1.86-3.25.35.46,4.19,2.51-.27.21,1.86-2.51.27.54,5,3.5-.37.21,1.86v-.02Z"/>
    <path class="cls-2" d="m93.47,124.32c.16,5.09-.95,7.55-3.55,7.63l-2.35.07-.44-14.83,2.56-.07c2.79-.08,3.64,2.6,3.77,7.21h0Zm-1.95.06c-.12-4.24-.71-5.45-1.88-5.42l-.55.02.33,11.17h.51c1.1-.05,1.72-1.31,1.59-5.77Z"/>
    <path class="cls-2" d="m103.79,130.33l-5.35.96-2.63-14.62,5.1-.92.33,1.83-3.22.57.74,4.16,2.49-.45.33,1.84-2.49.45.89,4.95,3.47-.62.33,1.83h.01Z"/>
    <path class="cls-2" d="m110.46,117.13c.96,2.88-.1,4.59-1.81,5.15l-.68.23,2.02,6.07-1.8.6-4.69-14.06,2.57-.85c1.71-.57,3.42-.04,4.39,2.87h0Zm-1.8.71c-.54-1.62-1.17-2.16-2.05-1.86l-.74.25,1.53,4.59.65-.22c.87-.29,1.15-1.17.63-2.75h-.01Z"/>
    <path class="cls-2" d="m121.93,119.5c1.11,2.17.83,3.86-1.04,4.81-1.74.89-3.42.16-4.44-1.86l-5.18-10.13,1.7-.87,5.13,10.03c.62,1.21,1.23,1.49,1.96,1.12.77-.4.81-1.02.21-2.2l-5.14-10.05,1.69-.87,5.13,10.01h0Z"/>
    <path class="cls-2" d="m129.5,118.83l-1.58,1.08-8.44-12.21,1.57-1.08,8.44,12.21h0Z"/>
    <path class="cls-2" d="m135.48,109.69c1.32,1.49,1.51,3.33.12,4.56-1.37,1.21-3.02.95-4.88-.8l1.18-1.45c1.24,1.11,1.91,1.2,2.39.78.5-.45.46-1.01-.14-1.69-.93-1.05-1.78-1.31-4.07-1.69-1.87-.32-3.54-.83-4.67-2.1-1.24-1.4-1.51-3.14-.09-4.4,1.45-1.28,2.97-.74,4.48.54l-1.1,1.51c-.99-.79-1.62-1.03-2.08-.62-.45.41-.41.94.21,1.65.68.78,1.47,1.05,3.3,1.35,2.29.38,4.1.94,5.34,2.35h.01Z"/>
    <path class="cls-2" d="m79.15,109.89l-3.32-8.43c-.66.79-1.42,1.59-2.47,2.47l-2.17-2.33,4.75-3.86,1.94-.76,4.56,11.61,2.74-1.08,1.15,2.93-9.57,3.76-1.15-2.93,3.54-1.38h0Z"/>
    <path class="cls-2" d="m95.12,97.38c.08,2.21-1.01,3.64-3.11,4.46-2.72,1.07-5.18.7-6.39-2.39-1.25-3.18.04-5.86,4.04-7.43,3.88-1.53,7.18-.72,9.41,4.95,1.65,4.22,1.11,8.37-3.51,10.19-3.95,1.55-6.21.59-7.69-1.85l3.05-1.9c.82,1.22,1.92,1.55,3.59.89,2.36-.92,2.51-2.92.99-6.8-.03-.07-.05-.12-.07-.2l-.31.06h0Zm-.64-1.42c-.48-1.24-1.75-1.89-3.68-1.13-2.01.79-2.27,2.12-1.78,3.39.5,1.29,1.68,1.8,3.45,1.1,2.01-.79,2.49-2.15,2-3.36h0Z"/>
    <path class="cls-2" d="m103.51,99.26c-.71-1.82-.02-3.38,2.46-4.86l-.1-.27c-2.24.35-3.77-.2-4.53-2.14-.97-2.5.1-4.6,4.12-6.18,4-1.57,6.25-.77,7.22,1.73.76,1.94,0,3.38-1.89,4.66l.1.27c2.84-.61,4.42.06,5.14,1.87.97,2.48-.14,4.84-4.63,6.61-4.5,1.77-6.9.78-7.88-1.69h0Zm3.27-1.78c.44,1.14,1.59,1.47,3.52.71,1.92-.75,2.54-1.78,2.1-2.92-.41-1.07-1.33-1.6-3.54-.74-2.24.88-2.51,1.88-2.09,2.95Zm-1.93-6.1c.51,1.31,1.6,1.5,3.12.89,1.53-.59,2.19-1.48,1.68-2.78-.47-1.19-1.4-1.52-3.11-.85-1.69.67-2.16,1.54-1.7,2.74Z"/>
    <path class="cls-2" d="m121.83,89.6c-.11-2.27,1.11-3.66,3.27-4.49,2.61-1.03,5.06-.7,6.23,2.28,1.23,3.13-.11,5.78-4.18,7.38-3.82,1.5-7.14.7-9.36-4.97-1.65-4.22-1.11-8.37,3.52-10.2,4.02-1.58,5.96-.49,7.56,2.43l-3.17,1.67c-.82-1.3-1.66-1.89-3.31-1.25-2.38.93-2.53,2.96-.98,6.9.04.09.09.23.12.32l.3-.07Zm.57,1.32c.46,1.18,1.68,1.8,3.72,1,2.13-.84,2.27-2.03,1.79-3.27-.45-1.19-1.4-1.74-3.35-.98-2.16.85-2.61,2.11-2.16,3.26Z"/>
  </g>
</svg>